<?xml version="1.0" encoding="utf-8"?>
<!-- Generator: Adobe Illustrator 16.0.0, SVG Export Plug-In . SVG Version: 6.00 Build 0)  -->
<!DOCTYPE svg PUBLIC "-//W3C//DTD SVG 1.1//EN" "http://www.w3.org/Graphics/SVG/1.1/DTD/svg11.dtd">
<svg version="1.1" id="Layer_1" xmlns="http://www.w3.org/2000/svg" xmlns:xlink="http://www.w3.org/1999/xlink" x="0px" y="0px"
	 width="589.356px" height="589.345px" viewBox="10.819 101.803 589.356 589.345"
	 enable-background="new 10.819 101.803 589.356 589.345" xml:space="preserve">
<title>Artboard 1</title>
<g>
	<g id="_Group_">
		<path fill="#21421E" d="M336.174,336.603c-3.278,2.317-7.989,2.186-12.59,2.568c-12.916,1.121-25.908,1.033-38.807-0.262
			c-3.476-0.372-7.279-0.426-9.771-2.306C292.591,332.177,318.546,332.221,336.174,336.603z M282.208,337.117
			c14.644,1.65,33.015,1.945,47.277-0.262C315.114,334.582,296.033,333.707,282.208,337.117L282.208,337.117z"/>
		<path fill="#21421E" d="M285.291,451.463C284.984,451.463,284.438,450.84,285.291,451.463z"/>
	</g>
	<path fill="#21421E" d="M356.84,688.492c-8.743,0-17.781-3.355-26.546-6.557c-8.491-3.137-17.234-6.372-25.365-6.404
		c-7.847,0-16,2.994-24.622,6.142c-8.841,3.278-17.978,6.558-26.95,6.558c-2.15,0.011-4.296-0.198-6.404-0.623
		c-11.027-2.186-19.912-10.448-28.469-18.415c-6.765-6.272-13.114-12.196-20.316-15.18c-7.508-3.126-16.841-3.508-25.879-3.912
		c-11.486-0.481-23.365-0.973-32.338-7.006c-9.169-6.163-14.207-17.103-19.016-27.671c-3.869-8.491-7.541-16.491-13.114-22.119
		c-5.574-5.629-14.065-9.585-22.218-13.377c-10.47-4.874-21.311-9.912-27.376-19.016s-6.502-21.049-6.94-32.6
		c-0.35-8.973-0.699-18.251-3.759-25.66c-3.06-7.41-8.983-13.792-15.3-20.645c-7.88-8.557-16.032-17.376-18.164-28.239
		c-2.098-10.59,2.033-21.748,6.033-32.546c3.137-8.48,6.382-17.233,6.415-25.375c0-7.759-2.983-15.923-6.153-24.601
		c-4.033-10.928-8.196-22.36-5.978-33.375c2.219-11.016,10.448-19.89,18.404-28.415c6.273-6.754,12.208-13.114,15.191-20.294
		c3.114-7.519,3.508-16.863,3.891-25.879c0.492-11.497,0.994-23.387,7.016-32.349c6.164-9.18,17.092-14.207,27.671-19.016
		c8.47-3.879,16.48-7.551,22.087-13.114c5.606-5.562,9.595-14.065,13.387-22.207c4.874-10.47,9.923-21.322,19.027-27.322
		c9.104-6,21.038-6.557,32.6-6.961c8.973-0.339,18.24-0.71,25.661-3.759c7.42-3.049,13.781-8.994,20.633-15.3
		c8.546-7.88,17.376-16.021,28.218-18.164c1.977-0.38,3.986-0.571,6-0.568c8.743,0,17.781,3.355,26.556,6.557
		c8.48,3.147,17.245,6.394,25.376,6.404c7.836,0,15.978-2.995,24.6-6.142c8.842-3.279,17.988-6.558,26.961-6.558
		c2.146-0.004,4.287,0.201,6.394,0.612c11.026,2.186,19.9,10.458,28.469,18.415c6.765,6.273,13.114,12.207,20.316,15.191
		c7.497,3.114,16.841,3.508,25.868,3.891c11.508,0.48,23.397,0.983,32.349,7.016c9.19,6.164,14.207,17.104,19.026,27.682
		c3.868,8.481,7.529,16.48,13.114,22.109c5.584,5.628,14.064,9.595,22.218,13.365c10.491,4.885,21.332,9.923,27.376,19.016
		c6.043,9.092,6.557,21.07,6.95,32.611c0.339,8.961,0.7,18.25,3.76,25.649c3.06,7.398,8.983,13.792,15.3,20.633
		c7.891,8.546,16.032,17.388,18.163,28.24c2.088,10.589-2.032,21.748-6.043,32.534c-3.137,8.48-6.383,17.234-6.404,25.376
		c0,7.77,2.973,15.934,6.142,24.6c4.033,10.994,8.196,22.338,5.979,33.376c-2.219,11.038-10.459,19.891-18.404,28.414
		c-6.284,6.766-12.218,13.114-15.19,20.306c-3.126,7.519-3.52,16.852-3.891,25.89c-0.492,11.486-0.983,23.376-7.027,32.349
		c-6.152,9.158-17.103,14.207-27.66,18.994c-8.491,3.88-16.502,7.552-22.098,13.114c-5.595,5.562-9.595,14.064-13.398,22.207
		c-4.863,10.491-9.912,21.332-19.016,27.376c-9.104,6.043-21.048,6.502-32.589,6.939c-8.983,0.36-18.262,0.721-25.671,3.76
		c-7.41,3.038-13.781,8.994-20.645,15.3c-8.546,7.868-17.376,16.021-28.229,18.163c-1.974,0.377-3.979,0.563-5.988,0.558
		L356.84,688.492z M304.809,670.897c9.06,0,18.229,3.432,27.07,6.699c8.841,3.268,17.06,6.316,24.961,6.316
		c1.709,0.001,3.414-0.16,5.093-0.48c9.573-1.901,17.934-9.596,26.021-17.049c6.842-6.316,13.923-12.841,21.988-16.163
		s17.879-3.749,27.245-4.099c11.42-0.448,22.207-0.853,30.229-6.186s12.579-15.136,17.398-25.496
		c3.956-8.503,8.054-17.3,14.306-23.529c6.251-6.229,14.95-10.152,23.42-14.021c9.999-4.579,20.338-9.3,25.78-17.398
		c5.3-7.89,5.759-18.578,6.251-29.977c0.394-9.432,0.809-19.19,4.251-27.441c3.278-7.924,9.76-14.918,16.043-21.683
		c7.53-8.109,15.301-16.491,17.278-26.229c1.979-9.737-1.978-20.491-5.792-30.885c-3.169-8.666-6.448-17.616-6.426-26.229
		c0-8.939,3.421-18.097,6.71-26.96c3.945-10.655,7.65-20.764,5.836-30.053c-1.901-9.574-9.606-17.923-17.049-26.01
		c-6.316-6.852-12.841-13.934-16.174-21.999c-3.333-8.065-3.727-17.847-4.088-27.234c-0.447-11.409-0.852-22.207-6.196-30.228
		c-5.344-8.022-15.136-12.59-25.485-17.398c-8.502-3.956-17.289-8.043-23.529-14.306s-10.142-14.95-14.011-23.42
		c-4.567-10-9.3-20.338-17.42-25.77c-7.891-5.312-18.578-5.759-29.966-6.24c-9.421-0.416-19.19-0.809-27.441-4.251
		c-7.924-3.278-14.918-9.781-21.683-16.054c-8.109-7.53-16.491-15.3-26.229-17.267c-1.8-0.356-3.63-0.532-5.464-0.525
		c-8.164,0-16.918,3.202-25.377,6.306c-8.633,3.158-17.54,6.426-26.086,6.426c-9.06,0-18.229-3.421-27.07-6.699
		s-17.06-6.317-24.961-6.317c-1.716-0.006-3.429,0.155-5.114,0.481c-9.562,1.88-17.923,9.584-25.988,17.027
		c-6.863,6.317-13.945,12.852-22.01,16.174s-17.945,3.737-27.365,4.098c-11.409,0.437-22.196,0.853-30.217,6.196
		c-8.021,5.344-12.535,15.114-17.366,25.497c-3.945,8.502-8.054,17.3-14.316,23.54c-6.262,6.24-14.95,10.153-23.42,14.032
		c-9.989,4.568-20.327,9.29-25.758,17.398c-5.322,7.901-5.771,18.579-6.251,29.977c-0.394,9.442-0.819,19.18-4.251,27.442
		c-3.279,7.923-9.836,14.917-16.043,21.671c-7.53,8.109-15.3,16.502-17.289,26.229c-1.989,9.727,1.979,20.502,5.792,30.896
		c3.18,8.655,6.458,17.617,6.437,26.229c0,8.939-3.421,18.098-6.699,26.95c-3.945,10.666-7.65,20.764-5.836,30.064
		c1.891,9.573,9.595,17.934,17.038,26.01c6.316,6.841,12.841,13.944,16.185,21.999s3.738,17.857,4.098,27.234
		c0.438,11.409,0.853,22.206,6.175,30.239c5.322,8.032,15.147,12.567,25.507,17.387c8.502,3.956,17.3,8.044,23.518,14.316
		c6.219,6.273,10.164,14.951,14.043,23.432c4.579,9.988,9.3,20.327,17.398,25.77c7.89,5.311,18.578,5.759,29.977,6.229
		c9.431,0.404,19.19,0.82,27.452,4.263c7.923,3.278,14.907,9.836,21.661,16.065c8.109,7.519,16.491,15.3,26.229,17.277
		c1.8,0.356,3.63,0.536,5.464,0.536c8.153,0,16.917-3.214,25.376-6.328c8.623-3.158,17.562-6.426,26.098-6.426L304.809,670.897z"/>
	<g>
		<path fill="#21421E" d="M305.497,145.419c-138.443,0-251.062,112.63-251.062,251.051c0,138.422,112.619,251.052,251.062,251.052
			c138.443,0,251.052-112.564,251.052-251.041C556.549,258.005,443.94,145.419,305.497,145.419z M305.497,626.91
			c-127.077,0-230.439-103.374-230.439-230.44S178.42,166.052,305.497,166.052s230.44,103.363,230.44,230.418
			C535.938,523.525,432.563,626.91,305.497,626.91L305.497,626.91z"/>
		<path fill="#21421E" d="M576.897,450.468c3.552-18.032,23.278-34.917,23.278-53.998s-19.737-35.966-23.278-53.987
			c-3.683-18.579,8.011-41.726,0.918-58.807c-7.224-17.388-31.9-25.453-42.25-40.917s-8.491-41.441-21.693-54.643
			c-13.201-13.202-39.08-11.278-54.643-21.693c-15.562-10.415-23.519-35.037-40.905-42.25c-17.104-7.093-40.229,4.59-58.807,0.918
			c-18.032-3.574-34.972-23.289-53.999-23.289c-19.026,0-35.977,19.671-53.998,23.289c-18.579,3.683-41.703-8.011-58.807-0.918
			c-17.409,7.202-25.507,31.878-40.927,42.217c-15.42,10.338-41.441,8.502-54.643,21.715
			c-13.202,13.212-11.278,39.081-21.704,54.643c-10.426,15.562-35.004,23.54-42.261,40.928c-7.082,17.081,4.59,40.217,0.918,58.807
			c-3.574,18.021-23.278,34.938-23.278,53.987c0,19.049,19.671,35.966,23.278,53.998c3.672,18.579-8,41.715-0.918,58.807
			c7.256,17.388,31.89,25.453,42.228,40.917s8.502,41.43,21.704,54.643s39.081,11.278,54.643,21.693
			c15.562,10.415,23.519,34.972,40.906,42.25c17.104,7.081,40.217-4.602,58.807-0.907c18.021,3.552,34.917,23.277,53.998,23.277
			c19.082,0,35.966-19.671,53.999-23.277c18.578-3.683,41.703,7.988,58.807,0.907c17.431-7.213,25.431-31.89,40.949-42.239
			s41.441-8.48,54.643-21.693c13.202-13.212,11.278-39.091,21.693-54.643s35.026-23.529,42.25-40.917
			C584.908,492.172,573.226,469.058,576.897,450.468z M305.497,650.155c-139.886,0-253.674-113.811-253.674-253.675
			c0-139.863,113.788-253.685,253.674-253.685s253.686,113.81,253.686,253.674C559.183,536.334,445.383,650.155,305.497,650.155z"/>
	</g>
	<path fill="#21421E" d="M304.579,161.473h1.814V150.02h-1.814V161.473z M304.579,642.92h1.814v-11.453h-1.814V642.92z
		 M70.5,395.563H59.014v1.814H70.5V395.563z M540.494,395.563v1.814h11.453v-1.814H540.494z M472.311,230.979l8.088-8.109
		l-1.279-1.29l-8.098,8.087L472.311,230.979z M138.684,562.005l-8.109,8.087l1.29,1.29l8.098-8.099L138.684,562.005z
		 M139.962,229.667l-8.098-8.109l-1.29,1.29l8.109,8.131L139.962,229.667z M471.021,563.283l8.109,8.099l1.278-1.29l-8.087-8.087
		L471.021,563.283z M216.386,179.024l-4.372-10.601l-1.683,0.7l4.372,10.59L216.386,179.024z M394.521,613.916l4.371,10.59
		l1.684-0.7l-4.372-10.578L394.521,613.916z M88.041,485.56l-10.579,4.371l0.688,1.684l10.59-4.372L88.041,485.56z M522.998,307.424
		l10.601-4.371l-0.688-1.683l-10.59,4.372L522.998,307.424z M396.259,179.713l4.372-10.59l-1.684-0.7l-4.371,10.601L396.259,179.713
		z M214.725,613.238l-4.372,10.579l1.683,0.699l4.372-10.59L214.725,613.238z M88.74,305.708l-10.59-4.371l-0.688,1.683
		l10.579,4.372L88.74,305.708z M522.266,487.231l10.59,4.372l0.688-1.684l-10.601-4.371L522.266,487.231z M260.548,165.812
		l-2.24-11.224l-1.781,0.35l2.186,11.246L260.548,165.812z M350.457,627.128l2.24,11.246l1.782-0.36l-2.252-11.246L350.457,627.128z
		 M74.839,441.43l-11.246,2.187l0.35,1.781l11.246-2.24L74.839,441.43z M536.167,351.521l11.234-2.186l-0.35-1.792l-11.246,2.186
		L536.167,351.521z M436.804,201.581l6.383-9.53l-1.52-1.005l-6.36,9.53L436.804,201.581z M174.19,591.359l-6.371,9.519l1.508,1.006
		l6.372-9.52L174.19,591.359z M110.608,265.163l-9.53-6.371l-1.016,1.508l9.541,6.372L110.608,265.163z M500.387,527.776l9.54,6.383
		l1.006-1.52l-9.529-6.35L500.387,527.776z M175.699,200.575l-6.372-9.53l-1.497,1.005l6.372,9.53L175.699,200.575z
		 M435.307,592.364l6.36,9.52l1.52-1.006l-6.383-9.519L435.307,592.364z M109.635,526.279l-9.573,6.328l1.016,1.519l9.541-6.382
		L109.635,526.279z M501.392,266.671l9.53-6.372l-1.006-1.508l-9.54,6.371L501.392,266.671z M350.457,165.812l1.781,0.36
		l2.252-11.245l-1.781-0.35L350.457,165.812z M256.526,638.014l1.781,0.36l2.24-11.246l-1.781-0.36L256.526,638.014z
		 M75.188,349.739l-11.246-2.186l-0.35,1.792l11.246,2.186L75.188,349.739z M535.806,443.2l11.246,2.24l0.35-1.781l-11.234-2.186
		L535.806,443.2z M280.438,151.298l1.093,11.41l1.792-0.175l-1.093-11.42L280.438,151.298z M327.639,630.429l1.093,11.409
		l1.803-0.186l-1.093-11.409L327.639,630.429z M71.539,418.601l-11.398,1.093l0.175,1.813l11.398-1.093L71.539,418.601z
		 M539.445,374.351l11.409-1.093l-0.175-1.803l-11.409,1.093L539.445,374.351z M455.295,215.405l7.268-8.874l-1.377-1.147
		l-7.268,8.863L455.295,215.405z M155.721,577.545l-7.29,8.863l1.41,1.158l7.278-8.852L155.721,577.545z M124.422,246.694
		l-8.874-7.278l-1.093,1.41l8.863,7.268L124.422,246.694z M486.584,546.257l8.852,7.278l1.093-1.409l-8.862-7.268L486.584,546.257z
		 M195.512,188.794l-5.355-10.098l-1.596,0.853l5.464,10.098L195.512,188.794z M415.472,604.146l5.409,10.109l1.606-0.853
		l-5.409-10.109L415.472,604.146z M97.822,506.434l-10.109,5.464l0.863,1.606l10.098-5.398L97.822,506.434z M513.173,286.496
		l10.098-5.41l-0.885-1.584l-10.109,5.41L513.173,286.496z M372.85,171.331l1.738,0.535l3.278-10.928l-1.727-0.536L372.85,171.331z
		 M233.084,632.057l1.727,0.525l3.278-10.929l-1.738-0.547L233.084,632.057z M80.872,327.391l-10.929-3.279l-0.524,1.738
		l10.928,3.278L80.872,327.391z M530.112,465.561l10.929,3.278l0.524-1.737l-10.929-3.279L530.112,465.561z M233.084,160.894
		l3.279,10.929l1.737-0.536l-3.278-10.928L233.084,160.894z M372.85,621.599l3.279,10.929l1.737-0.525l-3.278-10.928L372.85,621.599
		z M80.358,463.822l-10.929,3.279l0.524,1.737l10.929-3.278L80.358,463.822z M530.615,329.128l10.929-3.278l-0.525-1.738
		l-10.929,3.279L530.615,329.128z M417.078,189.658l5.409-10.098l-1.606-0.853l-5.409,10.098L417.078,189.658z M193.906,603.293
		l-5.388,10.109l1.595,0.863l5.399-10.109L193.906,603.293z M98.674,284.9l-10.098-5.41l-0.863,1.596l10.109,5.41L98.674,284.9z
		 M512.31,508.051l10.109,5.398l0.841-1.596l-10.098-5.464L512.31,508.051z M157.131,214.247l-7.278-8.863l-1.41,1.147l7.289,8.874
		L157.131,214.247z M453.886,578.715l7.268,8.853l1.398-1.159l-7.268-8.862L453.886,578.715z M123.285,544.836l-8.852,7.268
		l1.093,1.41l8.874-7.278L123.285,544.836z M487.721,248.093l8.862-7.268l-1.093-1.41l-8.852,7.278L487.721,248.093z
		 M327.639,162.511l1.803,0.197l1.093-11.41l-1.803-0.197L327.639,162.511z M280.438,641.642l1.803,0.186l1.093-11.409l-1.792-0.186
		L280.438,641.642z M71.702,372.536l-11.398-1.093l-0.197,1.781l11.399,1.093L71.702,372.536z M539.271,420.403l11.398,1.093
		l0.175-1.803l-11.409-1.093L539.271,420.403z M294.875,161.713l-0.568-11.453l-1.814,0.087l0.558,11.453L294.875,161.713z
		 M316.12,631.227l0.568,11.442l1.813-0.088l-0.557-11.453L316.12,631.227z M70.741,407.093l-11.453,0.568l0.087,1.813l11.453-0.546
		L70.741,407.093z M540.254,385.858l11.453-0.568l-0.087-1.814l-11.442,0.557L540.254,385.858z M463.973,223.022l7.716-8.502
		l-1.366-1.213l-7.65,8.502L463.973,223.022z M147.044,570.037l-7.65,8.48l1.344,1.235l7.65-8.491L147.044,570.037z
		 M131.974,237.984l-8.492-7.65l-1.213,1.344l8.491,7.716L131.974,237.984z M478.999,554.912l8.492,7.65l1.224-1.345l-8.48-7.704
		L478.999,554.912z M205.851,183.658l-4.907-10.36l-1.64,0.765l4.896,10.36L205.851,183.658z M405.155,609.293l4.906,10.36
		l1.64-0.787l-4.907-10.36L405.155,609.293z M92.664,496.116l-10.36,4.907l0.787,1.64l10.36-4.907L92.664,496.116z M518.32,296.823
		l10.36-4.907l-0.787-1.639l-10.36,4.896L518.32,296.823z M389.363,164.719l-1.694-0.601l-3.868,10.797l1.704,0.601L389.363,164.719
		z M221.609,628.221l1.716,0.612l3.858-10.797l-1.705-0.612L221.609,628.221z M84.533,316.451l-10.787-3.869l-0.612,1.716
		l10.809,3.858L84.533,316.451z M526.451,476.489l10.786,3.868l0.623-1.705l-10.797-3.868L526.451,476.489z M244.734,157.626
		l2.776,11.114l1.771-0.448l-2.809-11.115L244.734,157.626z M361.735,624.647l2.787,11.104l1.76-0.448l-2.798-11.104
		L361.735,624.647z M77.32,452.687l-11.115,2.787l0.459,1.727l11.115-2.787L77.32,452.687z M533.675,340.264l11.114-2.787
		l-0.448-1.76l-11.114,2.776L533.675,340.264z M427.1,195.395l5.901-9.835l-1.562-0.929l-5.901,9.836L427.1,195.395z
		 M183.906,597.566l-5.89,9.836l1.562,0.939l5.891-9.835L183.906,597.566z M104.401,274.879l-9.836-5.88l-0.94,1.541l9.836,5.891
		L104.401,274.879z M506.572,518.062l9.836,5.891l0.95-1.553l-9.836-5.89L506.572,518.062z M166.246,207.176l-6.82-9.213
		l-1.475,1.093l6.841,9.213L166.246,207.176z M444.793,585.764l6.819,9.202l1.476-1.093l-6.842-9.202L444.793,585.764z
		 M116.204,535.732l-9.202,6.831l1.093,1.453l9.202-6.842L116.204,535.732z M494.791,257.207l9.191-6.83l-1.094-1.454l-9.19,6.831
		L494.791,257.207z M339.092,163.899l1.792,0.251l1.672-11.333l-1.792-0.273L339.092,163.899z M268.438,640.122l1.792,0.273
		l1.683-11.344l-1.803-0.263L268.438,640.122z M73.221,361.094l-11.333-1.672l-0.273,1.782l11.333,1.683L73.221,361.094z
		 M537.828,431.846l11.333,1.683l0.272-1.781l-11.344-1.683L537.828,431.846z M271.925,163.899l-1.683-11.344l-1.792,0.273
		l1.672,11.333L271.925,163.899z M339.092,629.052l1.683,11.344l1.793-0.273l-1.684-11.344L339.092,629.052z M72.904,430.054
		l-11.344,1.683l0.284,1.804l11.376-1.694L72.904,430.054z M538.079,362.886l11.333-1.683l-0.263-1.782l-11.344,1.672
		L538.079,362.886z M446.214,208.269l6.819-9.213l-1.465-1.093l-6.775,9.213L446.214,208.269z M164.781,584.671l-6.841,9.213
		l1.475,1.093l6.809-9.202L164.781,584.671z M117.286,255.721l-9.213-6.819l-1.093,1.454l9.202,6.819L117.286,255.721z
		 M493.709,537.197l9.202,6.819l1.093-1.453l-9.191-6.831L493.709,537.197z M185.469,194.455l-5.891-9.835l-1.562,0.929l5.891,9.836
		L185.469,194.455z M425.525,598.507l5.901,9.835l1.563-0.939l-5.913-9.836L425.525,598.507z M103.472,516.542l-9.835,5.891
		l0.939,1.552l9.836-5.891L103.472,516.542z M507.534,276.441l9.835-5.891l-0.95-1.541l-9.836,5.88L507.534,276.441z
		 M361.735,168.303l1.749,0.448l2.798-11.115l-1.76-0.437L361.735,168.303z M244.734,635.336l1.749,0.448l2.809-11.104l-1.771-0.448
		L244.734,635.336z M77.757,338.494l-11.093-2.787l-0.437,1.76l11.093,2.797L77.757,338.494z M533.227,454.446l11.114,2.754
		l0.448-1.76l-11.114-2.787L533.227,454.446z M221.609,164.729l3.88,10.797l1.705-0.601l-3.857-10.797L221.609,164.729z
		 M383.812,618.036l3.868,10.797l1.694-0.611l-3.857-10.798L383.812,618.036z M83.942,474.784l-10.809,3.868l0.612,1.705
		l10.787-3.868L83.942,474.784z M527.063,318.156l10.797-3.858l-0.623-1.716l-10.786,3.869L527.063,318.156z M406.794,184.423
		l4.907-10.36l-1.64-0.765l-4.906,10.36L406.794,184.423z M204.2,608.451l-4.896,10.36l1.64,0.787l4.907-10.36L204.2,608.451z
		 M93.45,295.173l-10.393-4.896l-0.787,1.639l10.36,4.907L93.45,295.173z M517.533,497.767l10.36,4.907l0.787-1.64l-10.36-4.906
		L517.533,497.767z M148.344,221.744l-7.65-8.502l-1.344,1.213l7.65,8.502L148.344,221.744z M462.64,571.207l7.704,8.491
		l1.345-1.234l-7.716-8.481L462.64,571.207z M130.771,553.601l-8.492,7.705l1.224,1.344l8.47-7.649L130.771,553.601z
		 M480.234,239.339l8.491-7.715l-1.224-1.344l-8.492,7.65L480.234,239.339z M316.109,161.746l1.824,0.098l0.558-11.464l-1.814-0.087
		L316.109,161.746z M292.481,642.604l1.814,0.087l0.568-11.442l-1.803-0.087L292.481,642.604z M70.828,383.979l-11.442-0.557
		l-0.098,1.814l11.453,0.568L70.828,383.979z M540.166,408.852l11.442,0.568l0.099-1.813l-11.453-0.568L540.166,408.852z
		 M300.634,161.539l-0.273-11.432l-1.825,0.055l0.273,11.453L300.634,161.539z M310.371,631.467l0.273,11.464l1.825-0.055
		l-0.284-11.441L310.371,631.467z M70.555,401.344l-11.464,0.273v1.825l11.453-0.295L70.555,401.344z M540.483,391.618l11.464-0.284
		v-1.814l-11.464,0.284V391.618z M468.191,226.891l7.912-8.294l-1.312-1.246l-7.901,8.306L468.191,226.891z M142.804,566.038
		l-7.901,8.306l1.3,1.257l7.913-8.317L142.804,566.038z M135.93,233.809l-8.306-7.901l-1.246,1.3l8.306,7.913L135.93,233.809z
		 M475.076,559.163l8.283,7.901l1.257-1.311l-8.295-7.913L475.076,559.163z M211.107,181.275l-4.656-10.47l-1.661,0.743l4.645,10.47
		L211.107,181.275z M399.898,611.676l4.634,10.48l1.661-0.732l-4.645-10.48L399.898,611.676z M90.303,490.871l-10.524,4.645
		l0.743,1.672l10.481-4.655L90.303,490.871z M520.691,302.069l10.503-4.645l-0.732-1.672l-10.48,4.645L520.691,302.069z
		 M390.926,177.56l4.12-10.699l-1.683-0.656l-4.131,10.699L390.926,177.56z M220.08,615.391l-4.142,10.699l1.705,0.646l4.12-10.688
		L220.08,615.391z M86.565,311.052l-10.688-4.12l-0.656,1.694l10.688,4.131L86.565,311.052z M524.418,481.888l10.711,4.12
		l0.645-1.684l-10.688-4.174L524.418,481.888z M250.614,156.216l2.525,11.18l1.77-0.393l-2.524-11.191L250.614,156.216z
		 M356.107,625.959l2.514,11.169l1.781-0.383l-2.524-11.245L356.107,625.959z M76.019,447.069l-11.191,2.48l0.404,1.771l11.18-2.514
		L76.019,447.069z M535.02,345.871l11.201-2.514l-0.404-1.771l-11.19,2.514L535.02,345.871z M431.984,198.422l6.142-9.683
		l-1.54-0.973l-6.12,9.683L431.984,198.422z M178.999,594.518l-6.12,9.704l1.541,0.962l6.131-9.683L178.999,594.518z
		 M107.45,269.939l-9.683-6.131l-0.973,1.53l9.672,6.131L107.45,269.939z M503.556,522.946l9.683,6.142l0.962-1.541l-9.672-6.131
		L503.556,522.946z M170.923,203.832l-6.557-9.377l-1.497,1.039l6.612,9.376L170.923,203.832z M440.071,589.107l6.558,9.377
		l1.486-1.038l-6.558-9.388L440.071,589.107z M112.849,531.044l-9.377,6.558l1.093,1.476l9.355-6.558L112.849,531.044z
		 M498.157,261.906l9.377-6.557l-1.094-1.486l-9.376,6.557L498.157,261.906z M348.523,153.801l-1.781-0.306l-1.979,11.3l1.792,0.306
		L348.523,153.801z M262.472,639.149l1.781,0.307l1.967-11.301l-1.792-0.306L262.472,639.149z M74.106,355.411l-11.278-1.967
		l-0.317,1.792l11.3,1.956L74.106,355.411z M536.877,437.528l11.3,1.968l0.296-1.793l-11.29-1.967L536.877,437.528z
		 M277.586,163.134l-1.399-11.376l-1.803,0.229l1.399,11.366L277.586,163.134z M333.321,629.784l1.399,11.388l1.803-0.229
		l-1.398-11.388L333.321,629.784z M72.128,424.327l-11.376,1.409l0.229,1.804l11.376-1.41L72.128,424.327z M538.778,368.591
		l11.366-1.399l-0.208-1.814l-11.377,1.41L538.778,368.591z M450.793,211.766l7.049-9.038l-1.442-1.093l-7.061,9.038
		L450.793,211.766z M160.202,581.151l-7.06,9.05l1.454,1.093l7.038-9.038L160.202,581.151z M120.793,251.109l-9.038-7.016
		l-1.093,1.421l9.038,7.049L120.793,251.109z M490.18,541.688l9.026,7.049l1.093-1.432l-9.026-7.049L490.18,541.688z
		 M190.452,191.559l-5.661-9.978l-1.574,0.896l5.65,9.978L190.452,191.559z M420.542,601.381l5.65,9.978l1.585-0.896l-5.65-9.967
		L420.542,601.381z M100.543,511.515l-9.967,5.65l0.896,1.585l9.989-5.65L100.543,511.515z M510.364,281.436l9.967-5.65
		l-0.885-1.584l-9.967,5.639L510.364,281.436z M372.118,159.178l-1.76-0.47l-3.06,11.07l1.759,0.481L372.118,159.178z
		 M238.888,633.74l1.738,0.492l3.082-11.038l-1.759-0.492L238.888,633.74z M79.265,332.92l-11.06-3.049l-0.448,1.749l11.06,3.06
		L79.265,332.92z M531.708,460.02l11.06,3.06l0.492-1.748l-11.038-3.038L531.708,460.02z M227.314,162.741l3.595,10.928l1.716-0.579
		l-3.584-10.929L227.314,162.741z M378.347,619.883l3.606,10.929l1.728-0.558l-3.606-10.929L378.347,619.883z M82.084,469.319
		l-10.929,3.596l0.568,1.727l10.929-3.584L82.084,469.319z M528.943,323.62l10.928-3.584l-0.579-1.727l-10.929,3.596L528.943,323.62
		z M412.007,187.013l5.158-10.24l-1.628-0.82l-5.191,10.218L412.007,187.013z M199.031,605.971l-5.158,10.229l1.617,0.819
		l5.158-10.24L199.031,605.971z M96.007,289.993l-10.24-5.158l-0.809,1.618l10.229,5.158L96.007,289.993z M514.998,502.947
		l10.24,5.147l0.809-1.629l-10.219-5.147L514.998,502.947z M152.683,217.941l-7.486-8.677l-1.366,1.18l7.486,8.688L152.683,217.941z
		 M458.301,574.999l7.497,8.678l1.366-1.191l-7.497-8.688L458.301,574.999z M126.946,549.263l-8.677,7.497l1.191,1.365l8.678-7.485
		L126.946,549.263z M484.026,243.667l8.688-7.475l-1.202-1.377l-8.678,7.486L484.026,243.667z M321.879,162.052l1.825,0.142
		l0.874-11.432l-1.824-0.131L321.879,162.052z M286.46,642.188l1.814,0.143l0.853-11.432l-1.814-0.152L286.46,642.188z
		 M71.167,378.285l-11.388-0.863l-0.142,1.814l11.431,0.842L71.167,378.285z M539.762,414.655l11.421,0.853l0.131-1.814
		l-11.42-0.842L539.762,414.655z M289.104,162.052l-0.831-11.42l-1.814,0.131l0.852,11.432L289.104,162.052z M321.891,630.888
		l0.83,11.432l1.825-0.143l-0.853-11.442L321.891,630.888z M71.036,412.862l-11.431,0.831l0.142,1.814l11.431-0.831L71.036,412.862z
		 M539.871,380.077l11.432-0.842l-0.131-1.814l-11.421,0.853L539.871,380.077z M459.678,219.132l7.475-8.688l-1.377-1.18
		l-7.485,8.677L459.678,219.132z M151.317,573.808l-7.486,8.688l1.366,1.191l7.486-8.678L151.317,573.808z M128.148,242.29
		l-8.677-7.486l-1.191,1.377l8.677,7.486L128.148,242.29z M482.846,550.65l8.678,7.486l1.202-1.389l-8.688-7.485L482.846,550.65z
		 M200.648,186.171l-5.158-10.24l-1.628,0.82l5.158,10.24L200.648,186.171z M410.346,606.79l5.17,10.24l1.617-0.819l-5.126-10.251
		L410.346,606.79z M95.188,501.318l-10.229,5.147l0.809,1.629l10.24-5.147L95.188,501.318z M515.828,291.632l10.229-5.159
		l-0.809-1.617l-10.251,5.136L515.828,291.632z M378.347,173.057l1.728,0.579l3.606-10.928l-1.728-0.58L378.347,173.057z
		 M227.314,630.21l1.737,0.558l3.585-10.929l-1.716-0.558L227.314,630.21z M82.642,321.894l-10.929-3.596l-0.568,1.727l10.929,3.596
		L82.642,321.894z M528.353,471.047l10.929,3.595l0.579-1.727l-10.929-3.596L528.353,471.047z M243.707,169.778l-3.06-11.038
		l-1.737,0.47l3.06,11.049L243.707,169.778z M367.31,623.227l3.06,11.017l1.749-0.492l-3.061-11.038L367.31,623.227z
		 M78.773,458.293l-11.016,3.038l0.492,1.748l11.06-3.06L78.773,458.293z M532.222,334.669l11.038-3.06l-0.481-1.738l-11.06,3.049
		L532.222,334.669z M422.127,192.455l5.64-9.978l-1.553-0.885l-5.649,9.978L422.127,192.455z M188.878,600.484l-5.65,9.978
		l1.574,0.896l5.661-9.978L188.878,600.484z M101.45,279.84l-9.988-5.639l-0.864,1.584l9.945,5.65L101.45,279.84z M509.522,513.089
		l9.967,5.65l0.886-1.585l-10.011-5.64L509.522,513.089z M161.634,210.651l-7.06-9.038l-1.432,1.093l7.06,9.016L161.634,210.651z
		 M449.372,582.288l7.049,9.038l1.432-1.093l-7.049-9.049L449.372,582.288z M119.679,540.334l-9.038,7.049l1.093,1.432l9.027-7.049
		L119.679,540.334z M491.305,252.606l9.038-7.038l-1.093-1.421l-9.049,7.038L491.305,252.606z M333.321,163.134l1.804,0.229
		l1.475-11.376l-1.803-0.229L333.321,163.134z M274.427,640.953l1.803,0.229l1.355-11.377l-1.803-0.219L274.427,640.953z
		 M72.38,366.81l-11.376-1.41l-0.229,1.803l11.354,1.399L72.38,366.81z M538.614,426.13l11.377,1.41l0.208-1.792l-11.366-1.41
		L538.614,426.13z M266.22,164.784l-1.967-11.3l-1.781,0.306l2,11.3L266.22,164.784z M344.774,628.155l1.979,11.301l1.781-0.307
		l-1.968-11.3L344.774,628.155z M73.812,435.747l-11.3,1.967l0.317,1.793l11.278-1.979L73.812,435.747z M537.183,357.192
		l11.29-1.956l-0.296-1.792l-11.3,1.967L537.183,357.192z M441.515,204.87l6.557-9.376l-1.476-1.039l-6.557,9.377L441.515,204.87z
		 M169.393,588.069l-6.557,9.388l1.497,1.038l6.557-9.365L169.393,588.069z M113.887,260.42l-9.366-6.557l-1.093,1.486l9.376,6.557
		L113.887,260.42z M497.107,532.542l9.377,6.557l1.093-1.476l-9.376-6.557L497.107,532.542z M180.54,197.45l-6.142-9.683
		l-1.53,0.983l6.12,9.683L180.54,197.45z M430.454,595.49l6.12,9.683l1.541-0.962l-6.142-9.704L430.454,595.49z M106.488,521.416
		l-9.693,6.131l0.973,1.541l9.683-6.142L106.488,521.416z M504.528,271.523l9.672-6.131l-0.983-1.541l-9.661,6.142L504.528,271.523z
		 M360.369,156.205l-1.759-0.404l-2.514,11.191l1.771,0.394L360.369,156.205z M250.603,636.734l1.771,0.404l2.524-11.19
		l-1.771-0.404L250.603,636.734z M76.402,344.111l-11.18-2.514l-0.404,1.771l11.191,2.513L76.402,344.111z M534.571,448.851
		l11.19,2.514l0.404-1.771l-11.201-2.524L534.571,448.851z M221.773,176.904l-4.142-10.699l-1.694,0.656l4.142,10.699
		L221.773,176.904z M389.232,616.036l4.131,10.71l1.683-0.645l-4.12-10.699L389.232,616.036z M85.92,480.15l-10.688,4.131
		l0.656,1.683l10.71-4.12L85.92,480.15z M525.063,312.757l10.71-4.131l-0.645-1.694l-10.711,4.12L525.063,312.757z M401.57,182.019
		l4.645-10.47l-1.661-0.743l-4.634,10.47L401.57,182.019z M209.446,610.943l-4.656,10.48l1.661,0.732l4.656-10.48L209.446,610.943z
		 M91.035,300.397l-10.48-4.645l-0.776,1.683l10.48,4.645L91.035,300.397z M519.971,492.532l10.48,4.645l0.732-1.661l-10.503-4.645
		L519.971,492.532z M144.115,225.656l-7.913-8.306l-1.311,1.246l7.912,8.294L144.115,225.656z M466.88,567.283l7.901,8.317
		l1.311-1.257l-7.912-8.295L466.88,567.283z M134.651,557.853l-8.295,7.912l1.246,1.312l8.295-7.901L134.651,557.853z
		 M476.322,235.099l8.294-7.912l-1.257-1.322l-8.283,7.901L476.322,235.099z M312.459,150.107h-1.825l-0.263,11.432h1.814
		L312.459,150.107z M298.547,642.822l1.825,0.054l0.273-11.464h-1.814L298.547,642.822z M70.587,389.792l-11.453-0.284v1.814
		l11.464,0.284L70.587,389.792z M540.407,403.137l11.453,0.284v-1.814l-11.464-0.273L540.407,403.137z"/>
	<path fill="#21421E" d="M305.497,168.686c-125.613,0-227.817,102.171-227.817,227.784c0,125.613,102.204,227.817,227.817,227.817
		c125.613,0,227.817-102.193,227.817-227.817S431.121,168.686,305.497,168.686z M305.497,604.867
		c-115.078,0-208.364-93.298-208.364-208.375c0-115.078,93.286-208.386,208.364-208.386c115.078,0,208.386,93.286,208.386,208.364
		c0,115.078-93.308,208.375-208.386,208.375V604.867z"/>
	<g>
		<path fill="#21421E" d="M110.979,412.229h2.678v-20.392l-5.628,3.071v-3.847l7.759-4.372h1.476v25.507h2.754v3.158h-9.049
			L110.979,412.229z"/>
		<path fill="#21421E" d="M130.247,415.431l6.218-10.294c-0.645,0.299-1.336,0.487-2.043,0.557
			c-0.597,0.044-1.137,0.065-1.617,0.065c-1.125,0.002-2.239-0.217-3.279-0.645c-1.038-0.416-1.99-1.02-2.809-1.781
			c-0.824-0.774-1.489-1.702-1.956-2.732c-0.499-1.102-0.749-2.299-0.732-3.508c-0.026-1.424,0.242-2.837,0.787-4.153
			c0.505-1.166,1.25-2.212,2.186-3.071c0.901-0.838,1.96-1.488,3.115-1.913c1.203-0.446,2.476-0.672,3.759-0.667
			c2.476,0,4.863,0.919,6.699,2.579c0.919,0.823,1.663,1.823,2.186,2.94c0.998,2.227,1.068,4.758,0.197,7.038
			c-0.439,1.126-0.954,2.222-1.541,3.278l-6.765,12.284L130.247,415.431z M134.236,402.743c1.088,0.028,2.164-0.248,3.104-0.798
			c0.9-0.562,1.65-1.335,2.186-2.252c0.348-0.993,0.521-2.039,0.514-3.092c0.015-0.884-0.148-1.761-0.481-2.58
			c-0.297-0.729-0.748-1.385-1.322-1.923c-0.58-0.528-1.26-0.933-2-1.191c-0.8-0.282-1.643-0.423-2.492-0.415
			c-0.822-0.006-1.637,0.142-2.404,0.437c-0.741,0.282-1.42,0.705-2,1.246c-1.21,1.13-1.892,2.716-1.88,4.372
			c-0.021,0.915,0.166,1.822,0.546,2.655c0.346,0.741,0.85,1.397,1.476,1.924c0.645,0.528,1.388,0.925,2.186,1.169
			C132.495,402.578,133.361,402.729,134.236,402.743z"/>
	</g>
	<g>
		<path fill="#21421E" d="M114.346,352.996l2.273-8.131l2.842,0.798l-0.722,2.601l19.376,5.464l2.404-8.612
			c0.04-0.188,0.04-0.381,0-0.568c-0.031-0.202-0.093-0.397-0.186-0.579c-0.092-0.177-0.214-0.336-0.361-0.47
			c-0.136-0.128-0.301-0.222-0.481-0.273l-3.158-0.885l0.907-3.279l7.42,2.077l-5.279,18.896l-2.841-0.798l0.634-2.284
			l-19.376-5.464l-0.634,2.284L114.346,352.996z"/>
		<path fill="#21421E" d="M148.76,324.123l0.863-1.978l-6.24-0.459l-4,9.169l4.601,4.218l1.093-2.47l2.71,1.18l-3.377,7.737
			l-2.71-1.18l0.896-2.065l-17.901-16.666l2.022-4.645l24.382,1.814l1.093-2.394l2.71,1.18l-3.377,7.738L148.76,324.123z
			 M137.165,328.822l3.213-7.377l-12.611-1.093L137.165,328.822z"/>
		<path fill="#21421E" d="M142.377,288.627l4.524-7.137l2.492,1.585l-1.18,1.869l19.485,12.349l-2.35,3.716l-24.698-1.333
			l15.715,9.988l1.432-2.262l2.492,1.585l-4.524,7.136l-2.492-1.584l1.29-2.033l-16.972-10.765l-1.246,1.967l-2.535-1.606
			l3.672-5.803l24.557,1.344l-15.595-9.836l-1.563,2.459L142.377,288.627z"/>
		<path fill="#21421E" d="M150.683,276.878l12.021-14.207l5.606,4.776l-2.197,2.71l-3.344-2.852l-6.011,7.06l6.339,5.398
			l5.049-5.934l2.229,1.956l-5.049,5.934l6.721,5.716l6.011-7.06l-3.344-2.852l2.273-2.667l5.595,4.765l-12.021,14.207l-2.262-1.978
			l1.606-1.879l-15.3-13.027L153,278.824L150.683,276.878z"/>
		<path fill="#21421E" d="M190.977,267.742l1.825-1.53l-13.027-15.562l-4.546,3.825l2.601,3.104l-2.699,2.262l-4.372-5.256
			l17.737-14.863l4.371,5.256l-2.699,2.262l-2.557-3.147l-5.246,4.372l13.027,15.507l2.054-1.727l1.902,2.262l-6.47,5.464
			L190.977,267.742z"/>
		<path fill="#21421E" d="M193.293,236.443l15.705-10.011l3.956,6.208l-2.951,1.88l-2.36-3.727l-7.814,4.983l4.47,7.016l6.557-4.186
			l1.584,2.492l-6.557,4.186l4.743,7.442l7.814-4.983l-2.361-3.65l2.951-1.88l3.913,6.142l-15.705,10.011l-1.584-2.492l2.087-1.322
			l-10.797-16.95l-2.087,1.333L193.293,236.443z"/>
		<path fill="#21421E" d="M233.948,221.974c-1.168-0.843-2.535-1.37-3.967-1.53c-1.564-0.125-3.133,0.181-4.536,0.885
			c-1.156,0.518-2.174,1.3-2.972,2.284c-0.776,0.967-1.345,2.083-1.672,3.278c-0.341,1.222-0.46,2.496-0.35,3.76
			c0.24,2.675,1.398,5.185,3.278,7.104c0.886,0.91,1.93,1.65,3.082,2.186c1.116,0.512,2.325,0.791,3.552,0.82
			c1.264,0.029,2.518-0.237,3.661-0.776c1.415-0.6,2.642-1.57,3.552-2.809c0.84-1.262,1.344-2.718,1.464-4.229l3.486-1.574
			c-0.003,1.205-0.153,2.405-0.448,3.574c-0.285,1.127-0.726,2.208-1.311,3.213c-0.586,1.01-1.323,1.924-2.186,2.71
			c-0.945,0.843-2.014,1.535-3.169,2.054c-1.578,0.734-3.299,1.107-5.038,1.093c-1.661-0.007-3.303-0.345-4.831-0.995
			c-1.552-0.667-2.964-1.62-4.164-2.809c-2.976-2.912-4.567-6.956-4.371-11.115c0.056-1.113,0.254-2.215,0.59-3.278
			c0.669-2.114,1.906-4.004,3.574-5.464c0.879-0.77,1.866-1.407,2.929-1.891c0.934-0.437,1.917-0.756,2.929-0.951
			c0.918-0.178,1.852-0.259,2.787-0.241c0.852,0.017,1.699,0.13,2.524,0.339c0.738,0.185,1.453,0.453,2.131,0.798l1.617-0.743
			l1.279,2.776L233.948,221.974z"/>
		<path fill="#21421E" d="M258.614,206.783l8.142-2.24l0.787,2.841l-2.361,0.656l5.344,19.398l2.372-0.655l0.787,2.841l-8.12,2.251
			l-0.787-2.842l2.514-0.688l-2.481-9.016l-14.546,4l2.481,9.016l2.502-0.688l0.787,2.841l-8.142,2.24l-0.787-2.841l2.382-0.656
			l-5.344-19.398l-2.382,0.655l-0.787-2.841l8.142-2.24l0.787,2.841l-2.503,0.688l2.099,7.65l14.491-3.989l-2.099-7.65l-2.513,0.688
			L258.614,206.783z"/>
		<path fill="#21421E" d="M300.623,207.832c-0.795-1.204-1.886-2.182-3.169-2.842c-1.418-0.675-2.995-0.947-4.558-0.787
			c-1.264,0.078-2.492,0.452-3.584,1.093c-1.059,0.625-1.981,1.458-2.71,2.448c-0.752,1.02-1.315,2.168-1.661,3.388
			c-0.727,2.589-0.534,5.351,0.546,7.814c0.508,1.161,1.223,2.22,2.109,3.125c0.861,0.873,1.892,1.561,3.027,2.022
			c1.17,0.473,2.435,0.667,3.694,0.568c1.554-0.049,3.065-0.521,4.372-1.366c1.229-0.883,2.215-2.063,2.863-3.432l3.825-0.229
			c-0.429,1.125-0.995,2.192-1.683,3.18c-0.668,0.952-1.467,1.805-2.372,2.536c-0.916,0.736-1.941,1.326-3.038,1.749
			c-1.18,0.452-2.422,0.721-3.683,0.797c-1.734,0.139-3.478-0.111-5.104-0.732c-1.55-0.596-2.965-1.495-4.164-2.645
			c-1.213-1.173-2.195-2.563-2.896-4.098c-1.737-3.779-1.781-8.12-0.12-11.934c0.448-1.023,1.024-1.985,1.716-2.863
			c1.379-1.75,3.212-3.088,5.3-3.869c1.095-0.41,2.243-0.656,3.41-0.732c1.029-0.08,2.064-0.032,3.082,0.142
			c0.924,0.159,1.829,0.415,2.699,0.765c0.771,0.321,1.505,0.728,2.186,1.213c0.623,0.434,1.195,0.936,1.705,1.497l1.781-0.12
			l0.208,3.049L300.623,207.832z"/>
		<path fill="#21421E" d="M319.759,228.17c-1.174-0.09-2.33-0.348-3.432-0.765c-1.047-0.4-2.032-0.944-2.929-1.617
			c-0.888-0.666-1.682-1.449-2.36-2.328c-0.683-0.885-1.249-1.855-1.683-2.885c-0.447-1.051-0.767-2.152-0.951-3.279
			c-0.372-2.407-0.166-4.868,0.601-7.18c0.37-1.099,0.873-2.148,1.498-3.125c0.612-0.948,1.348-1.811,2.186-2.568
			c0.812-0.748,1.719-1.383,2.699-1.891c0.993-0.507,2.053-0.875,3.147-1.093c1.154-0.228,2.336-0.291,3.508-0.186
			c3.446,0.248,6.624,1.948,8.743,4.677c1.033,1.342,1.797,2.871,2.251,4.502c0.487,1.737,0.654,3.548,0.492,5.344
			c-0.1,1.209-0.346,2.402-0.732,3.552c-0.369,1.1-0.872,2.149-1.497,3.125c-0.616,0.946-1.351,1.81-2.186,2.568
			c-0.812,0.751-1.72,1.391-2.7,1.901c-0.995,0.512-2.059,0.88-3.158,1.093C322.104,228.233,320.926,228.285,319.759,228.17z
			 M320.032,224.892c1.28,0.123,2.572-0.057,3.771-0.525c1.143-0.451,2.181-1.131,3.049-2c0.894-0.898,1.612-1.954,2.12-3.115
			c0.541-1.225,0.869-2.533,0.973-3.869c0.118-1.331,0.007-2.673-0.327-3.967c-0.315-1.234-0.853-2.401-1.585-3.442
			c-0.713-1.005-1.624-1.853-2.678-2.492c-1.103-0.644-2.343-1.019-3.617-1.093c-1.284-0.124-2.58,0.056-3.781,0.525
			c-1.146,0.455-2.188,1.14-3.061,2.011c-0.896,0.902-1.618,1.961-2.131,3.125c-1.093,2.468-1.324,5.232-0.655,7.847
			c0.316,1.229,0.857,2.389,1.596,3.421c0.719,1,1.633,1.844,2.688,2.48c1.107,0.659,2.354,1.048,3.64,1.137V224.892z"/>
		<path fill="#21421E" d="M340.709,203.919l8.24,1.836l-0.645,2.885l-2.634-0.59l-4.372,19.671l8.743,1.945
			c0.188,0.041,0.381,0.041,0.568,0c0.2-0.042,0.392-0.116,0.568-0.218c0.174-0.1,0.329-0.229,0.459-0.383
			c0.124-0.144,0.21-0.317,0.251-0.502l0.711-3.202l3.278,0.732l-1.672,7.519l-19.147-4.273l0.646-2.885l2.316,0.514l4.372-19.671
			l-2.307-0.514L340.709,203.919z"/>
		<path fill="#21421E" d="M364.817,209.777l7.945,2.863l-1.006,2.775l-2.535-0.918l-6.819,18.929l8.415,3.027
			c0.183,0.062,0.376,0.085,0.568,0.066c0.203-0.015,0.402-0.063,0.59-0.142c0.186-0.075,0.355-0.183,0.503-0.317
			c0.142-0.125,0.25-0.283,0.316-0.459l1.094-3.082l3.169,1.093l-2.612,7.246l-18.458-6.601l1.006-2.776l2.186,0.798l6.819-18.929
			l-2.186-0.809L364.817,209.777z"/>
		<path fill="#21421E" d="M387.964,218.607l16.59,8.47l-3.344,6.557l-3.17-1.563l2-3.912l-8.251-4.219l-3.825,7.388l6.94,3.541
			l-1.301,2.667l-6.939-3.541l-4.011,7.857l8.251,4.218l2-3.912l3.114,1.595l-3.344,6.557l-16.59-8.469l1.344-2.634l2.187,1.093
			l9.136-17.901l-2.186-1.093L387.964,218.607z"/>
		<path fill="#21421E" d="M411.843,252.3l1.902-2.688l7.289,5.158l-0.765,1.093l-6.427,9.104l-2.622-1.858l2.021-2.852
			c-1.573,0.376-3.209,0.414-4.798,0.109c-1.691-0.362-3.286-1.081-4.678-2.109c-1.434-0.992-2.628-2.292-3.497-3.803
			c-0.824-1.443-1.353-3.038-1.552-4.688c-0.197-1.675-0.078-3.373,0.35-5.005c1.049-4.025,3.764-7.413,7.465-9.312
			c0.998-0.497,2.056-0.864,3.147-1.093c2.177-0.483,4.445-0.358,6.557,0.361c1.104,0.378,2.146,0.916,3.093,1.595
			c0.848,0.591,1.618,1.285,2.295,2.065c0.611,0.707,1.146,1.476,1.596,2.295c0.408,0.744,0.731,1.532,0.962,2.35
			c0.203,0.713,0.327,1.446,0.371,2.186l1.454,1.027l-1.771,2.492l-3.082-2.186c0.15-1.435-0.072-2.884-0.645-4.208
			c-0.672-1.417-1.719-2.623-3.027-3.486c-1.026-0.743-2.213-1.233-3.465-1.432c-1.216-0.189-2.457-0.129-3.649,0.175
			c-1.229,0.314-2.392,0.848-3.432,1.574c-2.199,1.542-3.798,3.797-4.524,6.382c-0.343,1.218-0.461,2.488-0.35,3.749
			c0.122,1.225,0.494,2.411,1.093,3.486c0.607,1.106,1.464,2.057,2.502,2.776c0.813,0.584,1.714,1.038,2.667,1.344
			c0.904,0.288,1.849,0.432,2.798,0.426c0.94-0.01,1.874-0.168,2.765-0.47c0.914-0.309,1.771-0.767,2.535-1.355L411.843,252.3z"/>
		<path fill="#21421E" d="M435.372,249.186l13.508,12.83l-5.07,5.344l-2.536-2.416l3.027-3.191l-6.721-6.382l-5.737,6.033
			l5.649,5.366l-2.032,2.186l-5.65-5.366l-6.076,6.393l6.721,6.382l3.027-3.191l2.536,2.415l-5.061,5.322l-13.485-12.863
			l2.032-2.186l1.793,1.705l13.846-14.579l-1.792-1.705L435.372,249.186z"/>
		<path fill="#21421E" d="M457.514,271.753l6.558,8.743c0.668,0.862,1.202,1.82,1.584,2.841c0.341,0.903,0.497,1.866,0.459,2.831
			c-0.044,0.934-0.298,1.845-0.743,2.667c-0.501,0.882-1.183,1.65-2,2.251c-0.735,0.563-1.586,0.959-2.491,1.158
			c-0.905,0.189-1.839,0.189-2.743,0c-0.972-0.188-1.898-0.56-2.732-1.093c-0.945-0.618-1.774-1.399-2.448-2.306l-2.786-3.661
			l-7.235,5.464l2.088,2.743l-2.35,1.792l-5.847-7.65l2.35-1.792l1.705,2.186l15.934-12.054l-1.749-2.295L457.514,271.753z
			 M458.924,278.562l-6.558,4.961l2.831,3.716c0.363,0.489,0.803,0.917,1.3,1.268c0.443,0.312,0.945,0.531,1.476,0.645
			c0.521,0.12,1.063,0.12,1.585,0c0.589-0.16,1.14-0.438,1.617-0.82c0.929-0.628,1.539-1.629,1.672-2.743
			c-0.004-1.331-0.503-2.612-1.398-3.596L458.924,278.562z"/>
		<path fill="#21421E" d="M472.268,291.818l5.377,9.519c0.546,0.944,0.947,1.964,1.19,3.027c0.217,0.94,0.242,1.914,0.077,2.863
			c-0.17,0.917-0.543,1.783-1.093,2.536c-0.625,0.835-1.423,1.525-2.339,2.021c-0.572,0.323-1.198,0.542-1.847,0.645
			c-0.667,0.104-1.345,0.104-2.012,0c-0.686-0.101-1.355-0.296-1.988-0.579c-0.644-0.271-1.24-0.64-1.771-1.093
			c0.043,0.341,0.043,0.686,0,1.027c-0.063,0.396-0.177,0.781-0.339,1.148c-0.183,0.415-0.406,0.81-0.667,1.18
			c-0.28,0.394-0.599,0.76-0.95,1.093l-4.208,4.055l1.093,1.989l-2.83,1.618l-2.503-4.372l5.924-5.595
			c0.914-0.78,1.582-1.809,1.923-2.962c0.203-1.066-0.013-2.17-0.601-3.082l-1.65-2.896l-7.912,4.502l1.322,2.328l-2.568,1.464
			l-4.175-7.344l2.568-1.464l1.18,2.077l17.486-9.945l-1.279-2.186L472.268,291.818z M472.606,298.484l-7.115,4.055l2.459,4.371
			c0.289,0.53,0.658,1.013,1.093,1.432c0.393,0.373,0.857,0.659,1.366,0.842c0.505,0.176,1.043,0.236,1.574,0.175
			c0.606-0.075,1.191-0.276,1.716-0.59c1.012-0.503,1.757-1.42,2.043-2.514c0.183-1.321-0.138-2.662-0.896-3.759L472.606,298.484z"
			/>
		<path fill="#21421E" d="M485.458,316.287l6.973,17.267l-6.83,2.754l-1.312-3.278l4.076-1.65l-3.465-8.601l-7.715,3.115
			l2.918,7.224l-2.732,1.093l-2.918-7.224l-8.186,3.278l3.476,8.59l4.076-1.65l1.312,3.279l-6.809,2.754l-6.994-17.18l2.743-1.093
			l0.929,2.295l18.633-7.53l-0.929-2.295L485.458,316.287z"/>
		<path fill="#21421E" d="M494.267,339.226l2.754,10.579c0.295,1.067,0.424,2.173,0.383,3.279c-0.029,0.967-0.252,1.918-0.656,2.798
			c-0.396,0.847-0.979,1.594-1.705,2.186c-0.816,0.647-1.763,1.109-2.775,1.355c-0.895,0.241-1.831,0.282-2.743,0.121
			c-0.91-0.164-1.777-0.514-2.546-1.027c-0.826-0.556-1.538-1.265-2.099-2.087c-0.638-0.93-1.104-1.966-1.377-3.06l-1.17-4.448
			l-8.742,2.316l0.874,3.333l-2.853,0.754l-2.459-9.333l2.853-0.754l0.722,2.721l19.431-5.125l-0.732-2.787L494.267,339.226z
			 M492.955,346.045l-7.912,2.087l1.191,4.514c0.146,0.591,0.386,1.156,0.71,1.672c0.283,0.455,0.655,0.849,1.093,1.159
			c0.446,0.299,0.954,0.494,1.486,0.568c0.607,0.082,1.225,0.037,1.814-0.131c1.11-0.212,2.072-0.898,2.634-1.88
			c0.505-1.23,0.536-2.605,0.087-3.857L492.955,346.045z"/>
	</g>
	<g>
		<path fill="#21421E" d="M147.284,466.927c0.413-0.278,0.751-0.653,0.984-1.093c0.242-0.439,0.408-0.916,0.492-1.41
			c0.074-0.522,0.074-1.052,0-1.574c-0.062-0.532-0.194-1.054-0.394-1.552c-0.264-0.72-0.632-1.397-1.093-2.011
			c-0.372-0.482-0.832-0.89-1.355-1.202c-0.45-0.264-0.955-0.421-1.476-0.459c-0.499-0.034-1,0.044-1.464,0.229
			c-0.607,0.223-1.146,0.6-1.563,1.093c-0.325,0.394-0.553,0.858-0.667,1.355c-0.108,0.495-0.146,1.003-0.109,1.508
			c0,0.518,0.037,1.024,0.109,1.52l0.24,3.639c0.081,0.989,0.081,1.983,0,2.973c-0.077,0.84-0.295,1.659-0.645,2.427
			c-0.334,0.711-0.806,1.351-1.388,1.879c-0.67,0.588-1.44,1.051-2.273,1.366c-0.954,0.395-1.986,0.566-3.016,0.503
			c-1.012-0.067-1.999-0.347-2.896-0.819c-0.961-0.515-1.817-1.204-2.525-2.033c-0.795-0.929-1.427-1.985-1.869-3.125
			c-0.454-1.068-0.741-2.2-0.853-3.355c-0.081-0.899,0-1.807,0.241-2.678c0.231-0.757,0.602-1.465,1.093-2.087
			c0.446-0.59,0.959-1.125,1.53-1.596l-0.48-1.213l2.743-1.093l1.607,4.011l-0.776,0.316c-0.604,0.233-1.145,0.607-1.574,1.093
			c-0.384,0.439-0.658,0.964-0.797,1.53c-0.15,0.619-0.183,1.26-0.099,1.891c0.091,0.751,0.282,1.486,0.568,2.186
			c0.256,0.662,0.606,1.284,1.038,1.848c0.364,0.476,0.817,0.876,1.333,1.18c0.473,0.276,1.005,0.437,1.552,0.47
			c0.584,0.026,1.167-0.078,1.705-0.306c0.589-0.221,1.107-0.599,1.497-1.093c0.342-0.446,0.594-0.955,0.743-1.497
			c0.152-0.56,0.229-1.137,0.229-1.716c0.004-0.559-0.025-1.117-0.087-1.672l-0.416-3.88c-0.096-0.816-0.096-1.643,0-2.459
			c0.091-0.764,0.321-1.504,0.678-2.186c0.36-0.673,0.842-1.273,1.421-1.771c0.678-0.568,1.446-1.02,2.273-1.333
			c0.893-0.367,1.854-0.539,2.819-0.503c0.962,0.04,1.903,0.294,2.754,0.743c0.941,0.502,1.776,1.181,2.459,2
			c0.812,0.98,1.458,2.088,1.912,3.278c0.331,0.801,0.552,1.643,0.656,2.503c0.089,0.771,0.067,1.552-0.065,2.316
			c-0.129,0.727-0.365,1.43-0.699,2.088c-0.333,0.654-0.748,1.265-1.235,1.813l0.481,1.191l-2.743,1.093l-1.562-3.901
			L147.284,466.927z"/>
		<path fill="#21421E" d="M158.169,489.658c0.746-1.236,1.16-2.645,1.202-4.088c-0.004-1.569-0.438-3.108-1.257-4.447
			c-0.611-1.111-1.477-2.062-2.525-2.776c-1.019-0.69-2.168-1.166-3.376-1.398c-1.25-0.229-2.531-0.229-3.782,0
			c-2.646,0.461-5.052,1.824-6.808,3.857c-0.832,0.967-1.48,2.078-1.913,3.278c-0.418,1.154-0.597,2.382-0.524,3.606
			c0.081,1.264,0.455,2.491,1.093,3.585c0.719,1.35,1.787,2.481,3.093,3.278c1.339,0.732,2.845,1.108,4.371,1.093l1.858,3.345
			c-1.2,0.096-2.408,0.044-3.595-0.153c-1.139-0.21-2.242-0.577-3.279-1.093c-1.058-0.511-2.031-1.182-2.885-1.989
			c-0.916-0.871-1.693-1.877-2.306-2.983c-0.874-1.508-1.401-3.191-1.541-4.929c-0.131-1.655,0.069-3.319,0.59-4.896
			c0.536-1.597,1.366-3.079,2.448-4.371c2.663-3.196,6.563-5.104,10.721-5.246c1.102-0.032,2.203,0.074,3.278,0.317
			c2.172,0.49,4.168,1.567,5.771,3.114c0.838,0.813,1.552,1.745,2.12,2.766c0.512,0.895,0.912,1.849,1.191,2.841
			c0.254,0.902,0.412,1.829,0.47,2.766c0.053,0.847,0.009,1.697-0.131,2.535c-0.125,0.75-0.333,1.482-0.623,2.186l0.875,1.552
			l-2.656,1.508L158.169,489.658z"/>
		<path fill="#21421E" d="M178.497,505.537l5.3,6.557l-2.295,1.858l-1.541-1.912L164.3,524.662l1.541,1.912l-2.295,1.848l-5.3-6.558
			l2.295-1.847l1.64,2.032l7.289-5.868l-9.431-11.705l-7.29,5.869l1.628,2.021l-2.295,1.858l-5.3-6.558l2.295-1.857l1.552,1.923
			l15.661-12.622l-1.552-1.924l2.295-1.857l5.3,6.557l-2.295,1.858l-1.628-2.022l-6.131,4.94l9.431,11.704l6.131-4.939l-1.64-2.033
			L178.497,505.537z"/>
		<path fill="#21421E" d="M177.043,541.711c-0.888-0.775-1.661-1.674-2.295-2.667c-0.599-0.947-1.062-1.974-1.377-3.049
			c-0.312-1.065-0.477-2.169-0.492-3.278c-0.017-1.104,0.108-2.206,0.372-3.279c0.276-1.139,0.691-2.24,1.235-3.278
			c1.14-2.154,2.777-4.005,4.776-5.398c0.954-0.663,1.985-1.206,3.071-1.617c1.055-0.397,2.157-0.654,3.279-0.766
			c1.093-0.109,2.195-0.072,3.279,0.109c1.101,0.187,2.171,0.525,3.18,1.006c1.064,0.509,2.05,1.168,2.929,1.956
			c2.61,2.264,4.136,5.529,4.196,8.983c0.024,1.692-0.28,3.373-0.896,4.95c-1.095,2.817-2.996,5.25-5.464,6.994
			c-0.95,0.659-1.978,1.199-3.06,1.606c-1.056,0.395-2.157,0.651-3.278,0.766c-1.092,0.116-2.194,0.086-3.279-0.088
			c-1.105-0.183-2.18-0.521-3.191-1.005C178.943,543.154,177.938,542.499,177.043,541.711z M179.229,539.284
			c0.953,0.864,2.094,1.493,3.333,1.836c1.185,0.321,2.424,0.396,3.639,0.219c1.253-0.185,2.46-0.6,3.562-1.224
			c1.169-0.656,2.219-1.507,3.104-2.514c0.891-0.997,1.604-2.14,2.109-3.377c0.485-1.177,0.752-2.433,0.787-3.705
			c0.03-1.234-0.193-2.462-0.656-3.606c-0.477-1.185-1.226-2.24-2.186-3.082c-0.955-0.865-2.101-1.494-3.344-1.836
			c-1.189-0.32-2.432-0.395-3.65-0.218c-1.257,0.188-2.469,0.606-3.574,1.234c-2.355,1.324-4.195,3.403-5.224,5.901
			c-0.484,1.173-0.748,2.426-0.776,3.694c-0.024,1.231,0.202,2.454,0.667,3.596c0.467,1.178,1.201,2.232,2.142,3.081H179.229z"/>
		<path fill="#21421E" d="M200.933,559.765c-0.997-0.63-1.898-1.399-2.677-2.284c-0.74-0.843-1.357-1.784-1.836-2.798
			c-0.473-1.003-0.807-2.065-0.995-3.158c-0.192-1.104-0.24-2.228-0.142-3.344c0.099-1.154,0.337-2.292,0.71-3.388
			c0.791-2.306,2.121-4.39,3.879-6.077c0.837-0.803,1.77-1.5,2.776-2.076c0.975-0.556,2.019-0.981,3.104-1.268
			c1.07-0.281,2.173-0.417,3.279-0.404c1.111,0.017,2.214,0.186,3.279,0.503c1.128,0.338,2.203,0.834,3.191,1.475
			c2.929,1.83,4.943,4.817,5.541,8.219c0.29,1.671,0.252,3.382-0.109,5.038c-0.376,1.766-1.073,3.447-2.055,4.962
			c-0.651,1.026-1.426,1.97-2.306,2.809c-0.837,0.8-1.769,1.493-2.776,2.065c-0.977,0.553-2.02,0.979-3.104,1.268
			c-1.069,0.287-2.171,0.431-3.278,0.426c-1.111-0.009-2.214-0.175-3.279-0.491C203.002,560.903,201.924,560.406,200.933,559.765z
			 M202.681,557.032c1.077,0.709,2.304,1.154,3.584,1.301c1.225,0.135,2.463,0.016,3.64-0.35c1.191-0.382,2.302-0.978,3.278-1.76
			c1.051-0.833,1.953-1.838,2.667-2.973c0.727-1.125,1.255-2.367,1.563-3.672c0.298-1.237,0.369-2.519,0.208-3.781
			c-0.161-1.221-0.57-2.396-1.202-3.453c-0.663-1.098-1.577-2.023-2.667-2.699c-1.08-0.711-2.312-1.156-3.596-1.301
			c-1.228-0.134-2.47-0.015-3.65,0.35c-1.214,0.379-2.348,0.979-3.344,1.771c-2.12,1.676-3.614,4.016-4.24,6.645
			c-0.294,1.234-0.357,2.513-0.186,3.771c0.17,1.219,0.587,2.39,1.224,3.442c0.682,1.102,1.614,2.026,2.721,2.699V557.032z"/>
		<path fill="#21421E" d="M227.828,544.924l7.65,3.497l-1.224,2.688l-2.459-1.093l-8.316,18.316l8.142,3.693
			c0.176,0.076,0.366,0.113,0.558,0.109c0.204,0,0.407-0.033,0.601-0.099c0.19-0.062,0.368-0.159,0.525-0.284
			c0.15-0.115,0.27-0.265,0.35-0.437l1.355-2.983l3.06,1.388l-3.104,7.005l-17.901-8.054l1.224-2.688l2.186,0.983l8.316-18.316
			l-2.186-0.983L227.828,544.924z"/>
		<path fill="#21421E" d="M256.909,583.972c-1.15-0.282-2.254-0.728-3.278-1.322c-0.97-0.562-1.856-1.258-2.634-2.065
			c-0.766-0.802-1.42-1.702-1.945-2.678c-0.531-0.986-0.931-2.037-1.191-3.126c-0.269-1.124-0.401-2.275-0.393-3.432
			c0.023-2.438,0.626-4.835,1.759-6.994c0.541-1.024,1.206-1.979,1.978-2.841c0.75-0.837,1.606-1.571,2.546-2.187
			c0.923-0.604,1.922-1.082,2.973-1.42c1.062-0.34,2.165-0.531,3.278-0.568c1.178-0.04,2.356,0.089,3.498,0.382
			c1.704,0.408,3.299,1.18,4.677,2.263c1.304,1.028,2.386,2.312,3.18,3.771c0.801,1.491,1.306,3.124,1.486,4.809
			c0.312,3.016-0.273,6.058-1.683,8.742c-0.54,1.025-1.204,1.979-1.978,2.842c-0.752,0.834-1.608,1.568-2.546,2.186
			c-0.922,0.611-1.922,1.097-2.973,1.442c-1.06,0.347-2.164,0.541-3.278,0.579C259.213,584.391,258.043,584.263,256.909,583.972z
			 M257.707,580.824c1.243,0.329,2.545,0.362,3.803,0.098c1.2-0.259,2.334-0.761,3.333-1.475c1.029-0.742,1.911-1.669,2.601-2.732
			c0.735-1.121,1.275-2.359,1.596-3.661c0.333-1.298,0.44-2.644,0.317-3.978c-0.11-1.269-0.451-2.505-1.005-3.65
			c-0.525-1.104-1.269-2.089-2.186-2.896c-0.975-0.83-2.132-1.418-3.377-1.716c-1.246-0.331-2.553-0.365-3.814-0.098
			c-1.205,0.262-2.343,0.768-3.344,1.485c-1.032,0.746-1.917,1.677-2.612,2.743c-0.74,1.12-1.283,2.358-1.606,3.661
			c-0.333,1.298-0.44,2.644-0.317,3.979c0.111,1.266,0.456,2.499,1.017,3.639c0.546,1.105,1.312,2.087,2.251,2.886
			c0.971,0.81,2.115,1.386,3.344,1.683V580.824z"/>
		<path fill="#21421E" d="M277.837,561.338l18.579,1.989l-0.787,7.322l-3.497-0.371l0.47-4.372l-9.355-1.005l-0.885,8.316
			l9.016,0.962l-0.306,2.863l-9.016-0.962l-0.94,8.809l2.645,0.284l-0.317,2.939l-8.393-0.896l0.317-2.939l2.394,0.251l2.186-19.988
			l-2.317-0.251L277.837,561.338z"/>
		<path fill="#21421E" d="M322.327,569.218c-0.786-1.209-1.87-2.195-3.147-2.863c-1.412-0.684-2.984-0.967-4.546-0.819
			c-1.269,0.076-2.5,0.45-3.596,1.093c-1.064,0.612-1.994,1.434-2.732,2.415c-0.759,1.016-1.329,2.159-1.683,3.377
			c-0.748,2.582-0.578,5.343,0.48,7.813c0.501,1.163,1.208,2.227,2.088,3.137c0.854,0.884,1.881,1.583,3.016,2.055
			c1.168,0.485,2.433,0.69,3.694,0.602c1.551-0.04,3.062-0.501,4.371-1.334c1.24-0.871,2.236-2.045,2.896-3.409l3.825-0.197
			c-0.441,1.123-1.018,2.188-1.716,3.17c-0.676,0.949-1.481,1.799-2.394,2.524c-0.922,0.729-1.95,1.311-3.049,1.727
			c-1.186,0.441-2.432,0.699-3.694,0.765c-1.737,0.124-3.481-0.141-5.104-0.775c-1.545-0.607-2.953-1.519-4.142-2.678
			c-1.205-1.182-2.176-2.579-2.864-4.12c-1.701-3.796-1.701-8.138,0-11.934c0.456-1.021,1.04-1.979,1.738-2.853
			c1.394-1.739,3.238-3.062,5.333-3.825c1.097-0.398,2.245-0.634,3.41-0.699c1.03-0.069,2.065-0.011,3.081,0.175
			c0.922,0.166,1.823,0.43,2.688,0.787c0.773,0.327,1.507,0.741,2.187,1.234c0.619,0.438,1.188,0.943,1.693,1.508l1.781-0.108
			l0.187,3.049L322.327,569.218z"/>
		<path fill="#21421E" d="M345.507,557.907l8.229-1.892l0.655,2.875l-2.394,0.546l4.492,19.606l2.394-0.547l0.655,2.874
			l-8.229,1.891l-0.655-2.874l2.546-0.579l-2.087-9.114l-14.655,3.354l2.087,9.115l2.524-0.579l0.656,2.874l-8.229,1.891
			l-0.655-2.874l2.404-0.558l-4.481-19.617l-2.404,0.547l-0.655-2.874l8.229-1.891l0.655,2.874l-2.524,0.579l1.76,7.649
			l14.655-3.354l-1.76-7.65l-2.546,0.579L345.507,557.907z"/>
		<path fill="#21421E" d="M379.778,570.267l2-0.83l-4.163-4.667l-9.246,3.825l0.383,6.229l2.491-1.027l1.093,2.732l-7.803,3.278
			l-1.093-2.732l2.076-0.863l-1.322-24.425l4.678-1.935l16.295,18.229l2.415-0.994l1.093,2.732l-7.803,3.278L379.778,570.267z
			 M368.173,565.601l7.442-3.082L367.276,553L368.173,565.601z"/>
		<path fill="#21421E" d="M392.336,564.836l2.055-1.334l-10.798-16.611l-2.186,1.454l-1.781-2.755l7.081-4.59l19.147,14.36
			l-5.213-23.409l6.754-4.371l1.781,2.754l-2.273,1.476l10.765,16.611l2.186-1.442l1.606,2.48l-7.081,4.59l-1.606-2.48l2.186-1.421
			l-10.929-16.797l4.842,24.229l-2.328,1.584l-20.196-14.207l10.874,16.765l2.251-1.453l1.606,2.48l-7.081,4.59L392.336,564.836z"/>
		<path fill="#21421E" d="M408.903,525.481l8.065-7.388c0.796-0.759,1.702-1.393,2.688-1.88c0.868-0.423,1.812-0.668,2.775-0.721
			c0.933-0.043,1.863,0.126,2.722,0.491c0.952,0.422,1.803,1.045,2.491,1.825c0.631,0.68,1.104,1.489,1.389,2.372
			c0.281,0.881,0.378,1.812,0.284,2.731c-0.105,0.99-0.398,1.951-0.863,2.831c-0.527,0.997-1.227,1.893-2.066,2.645l-3.388,3.115
			l6.164,6.688l2.514-2.306l2,2.186l-7.093,6.558l-2-2.187l2.065-1.912L413.1,525.733l-2.186,1.956L408.903,525.481z
			 M415.548,523.449l5.552,6.021l3.432-3.158c0.436-0.41,0.804-0.887,1.093-1.41c0.27-0.471,0.44-0.991,0.503-1.53
			c0.058-0.531-0.006-1.069-0.186-1.573c-0.212-0.574-0.539-1.099-0.962-1.541c-0.711-0.867-1.765-1.382-2.886-1.41
			c-1.325,0.129-2.556,0.744-3.453,1.728L415.548,523.449z"/>
		<path fill="#21421E" d="M424.247,510.826l5.606-6.316l2.186,1.956l-1.792,2.011l15.049,13.344l1.771-1.988l2.186,1.956
			l-5.552,6.327l-2.186-1.956l1.595-1.803l-15.048-13.344l-1.574,1.771L424.247,510.826z"/>
		<path fill="#21421E" d="M460.727,507.733c-0.671,0.97-1.477,1.838-2.394,2.579c-0.869,0.706-1.833,1.288-2.863,1.727
			c-1.02,0.435-2.093,0.729-3.19,0.875c-1.11,0.145-2.234,0.145-3.345,0c-1.148-0.147-2.275-0.434-3.354-0.853
			c-2.271-0.883-4.298-2.296-5.913-4.12c-0.767-0.871-1.423-1.833-1.956-2.863c-0.499-0.998-0.866-2.056-1.093-3.147
			c-0.236-1.076-0.328-2.179-0.273-3.278c0.059-1.117,0.272-2.221,0.634-3.279c0.381-1.115,0.918-2.172,1.596-3.136
			c1.948-2.852,5.015-4.742,8.438-5.202c1.68-0.221,3.388-0.112,5.026,0.316c2.935,0.778,5.573,2.405,7.585,4.678
			c0.768,0.87,1.425,1.832,1.956,2.863c0.497,0.998,0.864,2.056,1.093,3.147c0.243,1.075,0.343,2.178,0.295,3.278
			c-0.056,1.117-0.27,2.222-0.634,3.279C461.949,505.714,461.408,506.77,460.727,507.733z M458.071,505.876
			c0.749-1.044,1.243-2.25,1.442-3.52c0.184-1.214,0.117-2.452-0.196-3.639c-0.328-1.224-0.881-2.377-1.629-3.399
			c-0.79-1.084-1.758-2.026-2.863-2.786c-1.096-0.771-2.315-1.348-3.606-1.705c-1.225-0.349-2.502-0.471-3.771-0.36
			c-1.231,0.12-2.426,0.492-3.508,1.093c-1.125,0.619-2.087,1.495-2.809,2.558c-0.752,1.05-1.246,2.264-1.442,3.54
			c-0.185,1.222-0.118,2.467,0.196,3.661c0.332,1.228,0.888,2.384,1.64,3.41c1.585,2.188,3.859,3.777,6.459,4.514
			c1.221,0.344,2.496,0.458,3.759,0.339c1.229-0.123,2.418-0.495,3.497-1.093C456.378,507.854,457.348,506.959,458.071,505.876
			L458.071,505.876z"/>
		<path fill="#21421E" d="M454.071,466.041l3.693-7.649l2.656,1.289l-0.962,1.989l20.765,10.076l-1.935,4.032l-24.753,1.442
			l16.753,8.131l1.17-2.404l2.655,1.29l-3.683,7.65l-2.656-1.29l1.093-2.186l-18.087-8.743l-1.016,2.099l-2.699-1.312l2.994-6.175
			l24.546-1.442l-16.612-8.065l-1.278,2.623L454.071,466.041z"/>
		<path fill="#21421E" d="M467.809,445.911c-0.49-0.054-0.985,0.014-1.442,0.196c-0.468,0.185-0.899,0.447-1.279,0.776
			c-0.4,0.346-0.75,0.747-1.038,1.19c-0.291,0.459-0.52,0.956-0.678,1.476c-0.249,0.729-0.389,1.492-0.415,2.263
			c-0.023,0.609,0.069,1.217,0.273,1.792c0.178,0.488,0.466,0.93,0.842,1.29c0.359,0.344,0.793,0.602,1.268,0.754
			c0.597,0.22,1.24,0.284,1.868,0.186c0.501-0.095,0.972-0.304,1.377-0.612c0.416-0.309,0.784-0.677,1.093-1.093l0.886-1.234
			l2.186-2.951c0.582-0.806,1.229-1.562,1.935-2.262c0.595-0.597,1.285-1.088,2.044-1.454c0.713-0.334,1.485-0.523,2.272-0.558
			c0.892-0.022,1.78,0.114,2.623,0.404c0.984,0.311,1.886,0.842,2.634,1.553c0.737,0.701,1.318,1.55,1.705,2.491
			c0.411,1.011,0.63,2.089,0.645,3.181c0.019,1.221-0.17,2.437-0.558,3.596c-0.332,1.111-0.833,2.165-1.486,3.125
			c-0.514,0.743-1.158,1.387-1.901,1.901c-0.663,0.447-1.404,0.767-2.186,0.94c-0.717,0.168-1.45,0.252-2.186,0.251l-0.404,1.246
			l-2.809-0.907l1.333-4.12l0.798,0.263c0.606,0.212,1.255,0.275,1.891,0.186c0.578-0.091,1.125-0.319,1.596-0.667
			c0.508-0.38,0.941-0.85,1.278-1.388c0.396-0.627,0.709-1.303,0.929-2.011c0.228-0.674,0.356-1.377,0.383-2.088
			c0.024-0.602-0.068-1.203-0.273-1.77c-0.188-0.516-0.495-0.979-0.896-1.355c-0.43-0.392-0.941-0.684-1.497-0.853
			c-0.589-0.21-1.224-0.256-1.837-0.131c-0.552,0.124-1.075,0.354-1.54,0.678c-0.473,0.331-0.899,0.725-1.269,1.169
			c-0.361,0.424-0.697,0.869-1.005,1.333l-2.186,3.279c-0.457,0.687-0.992,1.317-1.596,1.879c-0.552,0.519-1.192,0.933-1.891,1.225
			c-0.695,0.281-1.437,0.434-2.186,0.448c-0.885,0.004-1.765-0.141-2.602-0.427c-0.918-0.292-1.764-0.776-2.48-1.421
			c-0.712-0.649-1.271-1.448-1.64-2.339c-0.402-0.988-0.61-2.046-0.611-3.114c0.001-1.271,0.212-2.534,0.622-3.737
			c0.258-0.825,0.625-1.612,1.094-2.339c0.424-0.649,0.939-1.234,1.529-1.737c0.562-0.477,1.192-0.867,1.869-1.159
			c0.678-0.29,1.391-0.492,2.12-0.601l0.394-1.225l2.809,0.907l-1.377,3.935L467.809,445.911z"/>
	</g>
	<g>
		<path fill="#21421E" d="M476.388,415.595c-1.728,0.063-3.441-0.312-4.983-1.093c-1.317-0.716-2.425-1.764-3.213-3.038
			c-0.843-1.392-1.424-2.925-1.716-4.524c-0.354-1.837-0.525-3.703-0.514-5.573c-0.004-1.238,0.065-2.476,0.207-3.705
			c0.131-1.155,0.365-2.296,0.699-3.41c0.31-1.027,0.738-2.014,1.279-2.94c0.51-0.875,1.168-1.656,1.945-2.306
			c0.808-0.664,1.73-1.174,2.721-1.508c2.354-0.725,4.87-0.725,7.224,0c1.981,0.652,3.654,2.009,4.699,3.814
			c0.539,0.922,0.965,1.905,1.269,2.929c0.326,1.104,0.557,2.233,0.688,3.377c0.141,1.208,0.21,2.423,0.207,3.64
			c0.011,1.881-0.161,3.759-0.514,5.606c-0.293,1.613-0.882,3.158-1.737,4.557c-0.812,1.285-1.941,2.339-3.278,3.061
			C479.83,415.267,478.116,415.65,476.388,415.595z M476.388,412.316c0.857,0.02,1.713-0.114,2.524-0.394
			c0.677-0.234,1.299-0.606,1.825-1.093c0.504-0.494,0.915-1.075,1.213-1.716c0.331-0.716,0.581-1.468,0.743-2.24
			c0.186-0.872,0.31-1.756,0.371-2.645c0.065-0.94,0.099-1.916,0.099-2.929c0.002-1.407-0.086-2.812-0.263-4.208
			c-0.14-1.233-0.476-2.436-0.994-3.562c-0.456-0.987-1.164-1.835-2.055-2.459c-1.025-0.653-2.228-0.974-3.442-0.918
			c-0.851-0.018-1.696,0.126-2.491,0.426c-0.677,0.264-1.291,0.666-1.804,1.18c-0.508,0.52-0.919,1.127-1.213,1.792
			c-0.323,0.73-0.568,1.492-0.732,2.273c-0.185,0.868-0.305,1.748-0.36,2.634c-0.059,0.933-0.088,1.883-0.088,2.853
			c-0.005,1.435,0.072,2.868,0.229,4.295c0.12,1.216,0.438,2.404,0.94,3.519c0.438,0.968,1.138,1.793,2.021,2.383
			C473.966,412.114,475.175,412.396,476.388,412.316z"/>
		<path fill="#21421E" d="M498.408,386.864c1.022-0.006,2.035,0.187,2.983,0.568c0.912,0.365,1.75,0.895,2.47,1.562
			c0.709,0.658,1.28,1.449,1.684,2.328c0.897,1.98,0.812,4.267-0.229,6.174c-0.55,1.005-1.324,1.868-2.263,2.524
			c1.245,0.732,2.289,1.761,3.038,2.994c0.369,0.612,0.656,1.27,0.853,1.957c0.52,1.812,0.376,3.749-0.404,5.464
			c-0.465,1.007-1.118,1.915-1.923,2.678c-1.702,1.597-3.951,2.48-6.284,2.47c-1.198,0.007-2.386-0.219-3.497-0.667
			c-1.057-0.419-2.025-1.034-2.853-1.813c-0.807-0.762-1.46-1.671-1.924-2.678c-0.476-1.027-0.719-2.146-0.71-3.278
			c0-1.462,0.405-2.896,1.169-4.143c0.764-1.234,1.823-2.26,3.082-2.983c-0.909-0.665-1.657-1.528-2.186-2.524
			c-1.008-1.907-1.085-4.171-0.208-6.142c0.396-0.878,0.96-1.669,1.661-2.328c0.725-0.674,1.57-1.204,2.492-1.562
			C496.328,387.073,497.363,386.869,498.408,386.864z M492.726,407.06c-0.005,0.709,0.145,1.41,0.438,2.055
			c0.287,0.634,0.695,1.206,1.202,1.683c0.522,0.469,1.126,0.839,1.781,1.094c0.692,0.285,1.436,0.431,2.186,0.426
			c0.75,0.008,1.493-0.138,2.186-0.426c0.65-0.257,1.25-0.627,1.771-1.094c0.506-0.478,0.915-1.049,1.202-1.683
			c0.293-0.645,0.442-1.346,0.438-2.055c0.003-0.697-0.146-1.388-0.438-2.021c-0.289-0.63-0.697-1.197-1.202-1.672
			c-0.519-0.47-1.118-0.84-1.771-1.093c-0.693-0.283-1.437-0.425-2.186-0.416c-1.471-0.01-2.89,0.541-3.967,1.541
			c-0.506,0.475-0.914,1.042-1.202,1.672C492.876,405.694,492.727,406.373,492.726,407.06L492.726,407.06z M493.742,394.241
			c-0.008,1.176,0.471,2.303,1.322,3.115c0.431,0.408,0.935,0.73,1.486,0.95c0.594,0.238,1.229,0.356,1.868,0.35
			c0.608,0.005,1.21-0.114,1.771-0.35c0.542-0.226,1.038-0.548,1.465-0.95c0.423-0.397,0.764-0.872,1.005-1.399
			c0.248-0.538,0.375-1.124,0.372-1.715c0.002-0.589-0.125-1.171-0.372-1.705c-0.241-0.527-0.582-1.002-1.005-1.399
			c-0.427-0.402-0.923-0.725-1.465-0.951c-0.561-0.235-1.162-0.354-1.771-0.35c-0.64-0.007-1.274,0.112-1.868,0.35
			c-0.552,0.22-1.056,0.542-1.486,0.951c-0.415,0.396-0.745,0.873-0.973,1.399c-0.238,0.537-0.361,1.118-0.36,1.705H493.742z"/>
	</g>
	<g>
		<path fill="#21421E" d="M204.845,363.214h-11.41v8.448h9.639C204.187,368.981,204.787,366.116,204.845,363.214z"/>
		<path fill="#21421E" d="M202.626,353.575h-9.191v8.896h11.41C204.786,359.376,204.028,356.335,202.626,353.575z"/>
		<path fill="#21421E" d="M202.626,372.252h-9.191c0.099,3.159-0.197,6.721,0.153,9.639
			C197.49,379.607,200.769,376.635,202.626,372.252z"/>
		<path fill="#21421E" d="M202.332,352.843c-2.032-3.732-5.129-6.776-8.896-8.743v8.896
			C196.354,352.887,199.665,353.182,202.332,352.843z"/>
		<path fill="#21421E" d="M309.781,294.167c-1.038,0.907-2.535,1.333-3.476,2.328c1.202,0.47,2.065,1.279,3.476,1.541
			C309.617,296.714,310.371,295.282,309.781,294.167z"/>
		<path fill="#21421E" d="M201.72,459.484c0.013,0.092,0.031,0.183,0.055,0.272v0.099c0.144,0.644,0.718,1.099,1.377,1.093h0.12
			h0.109c0.146-0.681,0.374-1.341,0.677-1.967c0.131-0.317,0.263-0.612,0.339-0.831c1.093-2.961,2.077-5.891,3.017-8.742
			c2.732-8.109,4.983-15.246,7.104-23.715l0.131-0.536c1.041-3.825,1.879-7.703,2.514-11.617c-1.748,3.447-3.263,7.007-4.535,10.655
			C208.583,435.179,204.933,447.036,201.72,459.484z"/>
		<path fill="#21421E" d="M203.566,461.834c-0.053-0.104-0.1-0.209-0.142-0.317l0,0c-0.12,0.013-0.241,0.013-0.36,0
			c-0.629-0.02-1.201-0.374-1.498-0.929v-0.055c-0.053-0.096-0.101-0.193-0.142-0.295l-0.055-0.164c0-0.076,0-0.153-0.076-0.24l0,0
			c-0.759,0.333-1.402,0.885-1.847,1.584c-0.693,1.351-1.028,2.855-0.973,4.372c0,0.186,0,0.382,0,0.568
			c0.328,0.546,0.623,1.257,1.246,0.863s1.202-0.273,1.278,1.093c0.077,1.366,0.842,1.18,1.454,1.377
			c0.419-0.761,0.76-1.563,1.017-2.394c0.61-1.623,0.731-3.39,0.35-5.082C203.75,462.079,203.665,461.951,203.566,461.834z"/>
		<path fill="#21421E" d="M203.37,352.985c2.125,0.079,4.252,0.031,6.372-0.142c-3.41-5.572-9.335-9.117-15.857-9.486
			C197.768,345.764,201.021,349.065,203.37,352.985z"/>
		<path fill="#21421E" d="M306.885,259.95c-0.514-1.519-1.781-5.06-3.278-5.224c-2.951-0.317-4.131,6.557-4.83,9.671
			c-0.775,3.639-1.355,7.316-1.738,11.016c4.459,2.12,8.677,4.47,12.951,6.765C309.476,274.321,309.071,266.485,306.885,259.95z"/>
		<path fill="#21421E" d="M196.441,474.401L196.441,474.401z"/>
		<path fill="#21421E" d="M210.036,372.252h-6.371c-2.163,4.176-5.448,7.666-9.486,10.076
			C200.877,382.02,206.911,378.186,210.036,372.252z"/>
		<path fill="#21421E" d="M192.55,353.575h-9.191c-1.431,2.747-2.181,5.798-2.186,8.896h11.562
			C192.594,359.553,192.889,356.253,192.55,353.575z"/>
		<path fill="#21421E" d="M203.512,353.729c1.263,2.742,1.919,5.724,1.923,8.743h6.962c0.049-3.128-0.772-6.208-2.372-8.896
			C207.853,353.501,205.678,353.553,203.512,353.729z"/>
		<path fill="#21421E" d="M182.321,353.575c-2.186,0.175-5.016-0.372-6.667,0.295c-1.323,2.682-2.068,5.612-2.186,8.601h6.961
			C180.485,359.062,181.666,355.947,182.321,353.575z"/>
		<path fill="#21421E" d="M180.387,363.214h-6.962c0.11,2.928,0.817,5.802,2.077,8.448h6.667
			C181.12,368.961,180.519,366.108,180.387,363.214z"/>
		<path fill="#21421E" d="M192.103,343.652c0-0.186,0-0.35-0.295-0.295c-7.541,0.863-12.48,4.372-15.562,9.639h6.557
			C185.032,349.007,187.895,345.663,192.103,343.652z"/>
		<path fill="#21421E" d="M278.854,270.004c-6.961-0.514-1.683,5.771,0,7.541c5.104,5.355,11.191,8.841,17.016,12.764
			c0-5.027,0.193-9.861,0.579-14.502C292.143,274.103,284.962,270.453,278.854,270.004z"/>
		<path fill="#21421E" d="M182.507,372.252h-6.557c3.038,5.464,8.12,9.661,15.857,9.935
			C187.703,379.983,184.436,376.493,182.507,372.252z"/>
		<path fill="#21421E" d="M203.818,371.662h6.667c1.206-2.665,1.909-5.528,2.076-8.448h-7.104
			C205.481,366.111,204.924,368.984,203.818,371.662z"/>
		<path fill="#21421E" d="M192.692,381.891v-9.639h-9.344C185.191,376.492,188.512,379.918,192.692,381.891z"/>
		<path fill="#21421E" d="M303.814,295.14c2.273-0.885,4.055-2.262,6.186-3.278c0.198-2.911,0.198-5.832,0-8.743
			c-4.154-2.611-8.481-4.937-12.951-6.961c-0.404,4.623-0.437,9.617-0.382,14.688C298.984,292.332,301.41,293.72,303.814,295.14z
			 M303.814,285.086c2.437-0.219,4.874,2.962,2.71,5.464C302.722,294.736,297.345,285.622,303.814,285.086z"/>
		<path fill="#21421E" d="M297.028,301.326c0.667,3.836,0.787,7.442,1.737,11.595c0.503,2.186,2.055,8.951,4.831,8.743
			c1.279-0.109,2.448-2.732,2.896-3.869c2.098-5.234,2.415-11.409,3.093-17.398c-1.814-0.896-3.596-1.825-5.465-2.71
			C301.653,298.688,299.279,299.905,297.028,301.326z"/>
		<path fill="#21421E" d="M182.912,371.662h9.835v-8.448H181.13C181.151,366.121,181.756,368.994,182.912,371.662z"/>
		<path fill="#21421E" d="M183.6,352.985h9.038c-0.196-2.863,0.394-6.557-0.295-8.896
			C188.599,346.105,185.551,349.206,183.6,352.985z"/>
		<circle fill="#21421E" cx="424.892" cy="369.159" r="1.814"/>
		<polygon fill="#21421E" points="415.537,359.772 412.893,357.127 408.772,361.247 404.499,356.963 401.778,359.673 
			406.062,363.958 401.953,368.078 404.587,370.722 408.707,366.602 413.023,370.919 415.733,368.208 411.417,363.892 		"/>
		<polygon fill="#21421E" points="410.958,340.264 407.122,340.264 407.122,346.319 401.297,346.319 401.297,350.056 
			407.122,350.056 407.122,356.166 410.958,356.166 410.958,350.056 416.771,350.056 416.771,346.319 410.958,346.319 		"/>
		<path fill="#21421E" d="M402.772,441.823c1.398,3.497,3.606,9.421,6.011,12.568C414.4,451.233,409.603,437.791,402.772,441.823z"
			/>
		<path fill="#21421E" d="M397.69,411.081c-0.382,0.099-0.514-0.251-0.962,0c-2.393,4.109-4.447,9.453-1.344,15.737
			C398.324,423.923,401.811,416.961,397.69,411.081z"/>
		<path fill="#21421E" d="M399.985,450.643c0.984,1.509,2.875,0.809,3.279,2.186c-8.383,0.81-8.842-11.9-3.279-15.005
			c-1.093-1.093-1.366-3.857-2.666-4.634c-0.634,3.979-5.366,8.743-4.863,13.596c0.83,8.12,7.813,11.529,15.245,8.196
			c-2.087-4.186-3.857-8.961-6.098-12.863C398.928,444.106,398.225,447.813,399.985,450.643z"/>
		<path fill="#21421E" d="M305.497,243.546c-84.463-0.006-152.939,68.46-152.945,152.923
			c-0.006,84.464,68.46,152.939,152.924,152.945c84.463,0.006,152.939-68.46,152.945-152.923c0-0.008,0-0.015,0-0.022
			C458.415,312.015,389.952,243.553,305.497,243.546z M273.629,303.457c1.75-3.814,4.571-7.038,8.12-9.278
			c-1.235,1.584-2.591,3.071-4.055,4.448c-0.994,1.093-3.519,3.278-3.093,5.224c0.71,3.279,10.011,0.099,11.398-0.382
			c3.858-1.344,6.973-2.951,10.251-4.251c0.065-2.186-0.35-3.913-0.197-6.186c-8.306-5.869-17.486-10.831-22.426-20.109v-1.355
			c0.436-1.238,1.584-2.084,2.896-2.131c7.41-1.093,14.208,4.284,19.912,5.606c0.71-4.218,0.841-8.12,1.934-12.568
			c0.71-2.896,2.438-9.06,5.803-8.896c2.186,0.109,3.53,3.278,4.251,5.224c2.766,7.3,3.017,16.065,3.672,24.742
			c1.705,1.202,3.498,2.295,5.225,3.486c3.771-2.656,9.037-6.557,12.567-10.634c1.093-1.268,3.355-3.191,2.896-5.027
			c-0.317-1.279-1.968-0.831-2.514-1.935c8.961,0.765,0.634,9.125-2.12,11.606c-3.399,3.049-6.415,5.18-8.896,7.344
			c3.156,2.223,6.191,4.613,9.093,7.158c1.497,1.399,7.421,6.557,5.804,10.054c-0.678,1.465-3.574,1.541-5.606,1.355
			c-7.017-0.645-11.737-3.858-17.017-5.606c-1.19,8.35-1.453,17.617-6.961,21.649h-0.962c-5.759-3.781-5.715-13.366-7.158-21.464
			c-5.759,1.628-14.852,7.541-22.229,4.645c0-0.492-0.35-0.678-0.579-0.973L273.629,303.457z M182.922,382.044
			c-6.615-3.343-10.959-9.946-11.409-17.344c-0.734-7.601,2.661-15.012,8.896-19.42c2.946-2.154,6.437-3.438,10.076-3.705
			c6.619-0.805,13.239,1.494,17.934,6.229c3.361,3.661,5.484,8.288,6.065,13.223c0.78,7.72-2.752,15.243-9.191,19.573
			c-6.684,4.395-15.188,4.943-22.381,1.443H182.922z M210.244,334.724c0-1.202,0.219-2.404,0.175-3.596
			c3.016-0.339,6.907,3.727,6.863,6.688c-1.169,0.076-2.338,0.229-3.519,0.262c-0.229-1.519-1.945-3.584-3.562-3.355H210.244z
			 M217.686,413.813c-0.633,3.887-1.464,7.739-2.492,11.541l-0.131,0.535c-2.131,8.491-4.372,15.639-7.115,23.748
			c-0.94,2.809-1.956,5.737-3.016,8.742c-0.077,0.229-0.208,0.536-0.35,0.864c-0.31,0.612-0.527,1.269-0.645,1.944l0,0
			c0.03,0.158,0.085,0.31,0.164,0.448c0.077,0.14,0.139,0.286,0.186,0.438c0.408,1.792,0.287,3.664-0.35,5.388
			c-0.873,3.147-3.07,5.76-6.021,7.158h-0.087c-0.354,0.208-0.75,0.335-1.159,0.372c-0.224,0.004-0.442-0.064-0.623-0.197
			l-0.109-0.076v-0.132c0.025-0.853,0.229-1.69,0.601-2.458c0.109-0.273,0.229-0.558,0.328-0.853c0.364-1.05,0.638-2.129,0.82-3.225
			c0.12-0.731,0.175-1.529,0.218-2.295c-0.038-1.609,0.338-3.201,1.093-4.623c0.532-0.854,1.336-1.505,2.284-1.847
			c3.213-12.437,6.874-24.283,10.929-35.212c1.31-3.769,2.888-7.439,4.721-10.983l0,0l0.175-0.186l0.153-0.262l0.109,0.098
			c0.04-0.007,0.081-0.007,0.12,0c0.306,0,0.383,0.295,0.405,0.492l0,0v0.12l0.055,0.645L217.686,413.813z M220.276,338.581
			c0.164-4.666-5.88-10.699-10.546-10.546c0.23-1.169,0.077-2.339,0.426-3.519c3.958,0.451,7.599,2.379,10.196,5.399
			c1.898,2.364,3.088,5.217,3.432,8.229c-1.213,0.35-2.382,0.164-3.552,0.437H220.276z M228.418,338.844
			c-0.564,0.116-1.139,0.174-1.716,0.175c-0.251-0.197-0.208-2.12-0.426-3.005c-1.979-7.312-7.981-12.837-15.431-14.207
			c-0.514-0.077-1.398,0-1.453-0.087c-0.438-0.448,0.524-3.071,0.175-3.596c5.798,0.403,11.212,3.049,15.092,7.377
			c3.214,3.662,5.167,8.259,5.574,13.114c-0.59,0.182-1.209,0.256-1.825,0.218L228.418,338.844z M361.233,521.351l-41.452-3.464
			c0,2.404-0.416,5.049-1.771,6.557c-0.754,0.859-1.841,1.354-2.983,1.355h-13.661c-1.143-0.004-2.229-0.497-2.983-1.355
			c-1.344-1.486-1.738-4.131-1.771-6.557l-41.452,3.464l-0.459-5.562l5.224-32.141l5.016-0.361
			c3.388-2.743,17.77-13.923,28.6-14.479c4.677-0.263,8.557,0.852,11.519,3.278c1.247,1.029,2.304,2.269,3.125,3.661
			c0.823-1.396,1.885-2.635,3.137-3.661c2.95-2.394,6.841-3.497,11.508-3.278c10.83,0.557,25.223,11.736,28.611,14.479l5.026,0.361
			l5.225,32.141L361.233,521.351z M380.424,357.226c-0.612,8.983-6.918,15.048-15.935,17.988
			c-8.742,2.831-23.616,4.437-25.955,10.797c-3.137,8.502,12.973,12.885,12.339,2.82c4.371,0.295,4.043,6.939,2.316,9.256
			c-3.147,4.187-13.322,4.766-17.988,1.804c-2.099,11.432-10.929,16.142-21.081,19.529v2.579c0.196,0.568,1.442,0.088,2.055,0.251
			v2.055c1.891,0.077,4.295-0.36,5.136,0.776c0.732,1.497-0.339,2.743-0.775,3.857h-3.847c0.12,1.661-1.159,1.924-2.579,2.055
			c0.026,4.3,0.369,8.592,1.027,12.841c3.661,0.623,8.272,0.284,8.982,3.858c4.94-0.229,6.438,2.994,6.688,7.442
			c-13.835,4.108-36.556,4.24-50.37,0c0.219-4.372,1.716-7.541,6.426-7.442c1.093-3.061,4.765-3.629,8.994-3.606
			c1.312-3.847,1.158-8.284,1.279-12.842c-0.546-0.994-3.279,0.143-2.306-2.306h-3.858c-0.776-0.853-1.77-2.284-1.027-3.857
			c0.765-1.038,2.853-0.743,4.623-0.776c0.197-1.344,0.459-2.622,2.568-2.055v-2.645c-9.661-3.879-19.212-7.857-20.765-19.791
			c-4.775,2.809-14.546,2.535-17.988-1.541c-1.901-2.252-2.273-8.678,1.803-9.508c-0.36,8.917,15.136,6.754,12.59-2.568
			c-1.639-5.989-12.939-7.093-20.305-9.257c-10.437-3.049-23.038-7.475-21.584-23.125c0.743-8.076,5.727-11.376,11.813-13.879
			c3.606-1.476,8.317-1.88,9.508-6.415h4.109c0.896,4.371,5.18,5.464,10.535,5.388c0.481-0.536,0.164-1.891,0.776-2.306
			c10.491-6.218,29.835-6.426,46.764-5.661c11.333,0.514,22.873,0.885,29.507,5.912c0.394,0.372,0.229,1.312,0.251,2.055
			c5.629,0.229,10.065-0.732,10.798-5.388h4.109c0.636,1.498,1.506,2.885,2.579,4.109c7.891,2.557,11.54,3.333,15.157,7.464
			c2.427,2.754,3.935,6.776,3.585,12.065L380.424,357.226z M408.969,456.009c5.465,7.082,4.842,17.201-3.508,17.026
			c-3.617-0.076-9.289-8.064-1.76-9.06c2.135-0.166,4.016,1.392,4.252,3.52c0.295,1.562-0.798,2.491-1.498,4.601
			c8.131-1.476,4.229-9.464,1.935-15.912c-8.524,3.792-16.327,0.088-18.677-6.853c-2.962-8.808,2.951-15.19,5.464-21.136
			c-5.377-3.956-5.464-20.054,1.574-20.283c3.803-0.12,5.704,8.055,5.464,11.781c-0.514,7.759-6.557,10.742-1.606,18.054
			c12.284-6.415,18.885,13.519,8.316,18.196L408.969,456.009z M416.062,376.022c-11.087,0.048-20.114-8.901-20.163-19.988
			c-0.048-11.087,8.901-20.115,19.988-20.163c11.088-0.048,20.115,8.901,20.163,19.988c0,0.007,0,0.014,0,0.021
			c0,11.07-8.961,20.052-20.032,20.076L416.062,376.022z"/>
		<path fill="#21421E" d="M333.562,304.036c-2.339-7.104-9.727-11.398-15.081-15.3c-2.186,1.289-4.153,2.809-6.383,4.054
			c-0.087,2.109-0.262,4.12-0.382,6.186c4.677,2.011,10.929,5.596,17.016,6.186C330.229,305.293,332.841,305.49,333.562,304.036z"/>
		<path fill="#21421E" d="M312.109,284.528v5.803c1.771-0.612,2.731-2.043,4.447-2.71
			C315.293,286.307,313.781,285.255,312.109,284.528z"/>
		<rect x="419.11" y="346.264" fill="#21421E" width="11.344" height="3.737"/>
		<path fill="#21421E" d="M288.973,499.92c-8.098,0.47-19.409,8.262-27.321,14.786l35.846-2.994
			c1.859-0.147,3.486,1.239,3.634,3.099c0.016,0.198,0.014,0.397-0.005,0.595c-0.065,0.688-0.109,1.41-0.109,2.12h4.776
			c0-1.354-0.514-10.032-5.202-14.426C297.957,500.707,293.389,499.668,288.973,499.92z"/>
		<circle fill="#21421E" cx="424.892" cy="359.499" r="1.814"/>
		<rect x="419.11" y="362.384" fill="#21421E" width="11.344" height="3.737"/>
		<path fill="#21421E" d="M266.537,355.564c-0.722-0.831-2.251-0.831-2.831-1.803c2.48-9.322-8.492-13.027-16.196-9.759
			c-6.677,2.819-5.388,13.628-0.514,18.24c6.831,6.458,21.125,7.857,28.01,13.114c-1.006-9.366-2.011-18.721-4.372-26.731
			C269.302,351.018,268.296,353.695,266.537,355.564z"/>
		<path fill="#21421E" d="M360.326,343.281c-8.35-0.907-13.88,2.546-12.853,10.786c-1.093,0.416-2,1.093-3.082,1.541
			c-1.508-2.098-2.371-4.831-4.108-6.677c-2.027,8.708-3.405,17.556-4.12,26.469c9.835-7.803,30.381-6.437,32.13-21.07
			C369.123,347.39,365.801,343.86,360.326,343.281z"/>
		<path fill="#21421E" d="M285.291,451.463C284.438,450.84,284.984,451.463,285.291,451.463z"/>
		<path fill="#21421E" d="M315.836,503.1c-4.699,4.372-5.158,13.114-5.213,14.426h4.786c0-0.71,0-1.432-0.109-2.12
			c-0.102-0.994,0.243-1.982,0.94-2.699c0.691-0.728,1.678-1.098,2.678-1.005l35.846,2.994
			c-7.968-6.558-19.278-14.316-27.322-14.786C322.917,499.668,318.35,500.707,315.836,503.1z"/>
		<path fill="#21421E" d="M285.291,451.463c1.453,1.093,6.929,1.529,9.508,1.803c11.114,1.17,23.802,0.153,31.868-2.055
			C313.224,451.735,297.487,451.954,285.291,451.463z"/>
		<path fill="#21421E" d="M322.896,361.466c-1.508-0.634-16.546-1.093-17.398-1.169l0,0c-0.328,0-2.699,0.087-5.595,0.218v-3.508
			c0-1.322,3.978-0.831,6.393-2.011c1.706-0.632,2.605-2.502,2.033-4.229c-0.197-0.983-3.487-3.388-2.317-0.404
			c1.76,4.459-13.18,1.552-13.901,3.781c-0.82,2.536,2.033,2.295,2.667,3.759v2.875c-2.241,0.05-4.474,0.28-6.677,0.688
			c-1.672,0.699,2.372,5.803-0.59,21.398c-0.765,4.022,6.338-1.792,5.584-16l1.683-0.186v22.95c0,1.377-2.885,5.464-1.093,5.016
			c2.819-0.774,5.679-1.387,8.568-1.836c-0.087,5.344-0.24,7.978-1.869,9.3l5.136,3.693l0,0l0,0l0,0l5.136-3.693
			c-1.617-1.322-1.771-3.935-1.857-9.235c2.601,0.458,5.173,1.064,7.704,1.814c1.093,0.295-3.584-8.295-0.36-15.857
			c0.153-0.372-4.611-0.328-4.721,8.131c0,0.35-0.82-0.218-2.602-0.601l0.065-19.77c0,0,3.389-0.099,4.623-0.099
			c1.235,0,4.371,0.405,4.371,0.405c-0.754,14.207,6.35,20.021,5.585,15.999C320.535,367.269,324.578,362.122,322.896,361.466z
			 M299.945,386.973v-20.48l2.186,0.055l0.065,19.857c-0.743,0.153-1.486,0.328-2.295,0.568H299.945z"/>
		<path fill="#21421E" d="M275.006,336.603c2.492,1.88,6.295,1.935,9.771,2.306c12.899,1.295,25.891,1.383,38.807,0.262
			c4.601-0.394,9.322-0.251,12.59-2.568C318.546,332.221,292.591,332.177,275.006,336.603z M282.198,337.117
			c13.835-3.398,32.906-2.535,47.277-0.262c-14.251,2.208-32.633,1.913-47.266,0.262H282.198z"/>
		<path fill="#21421E" d="M301.628,296.495c-1.529-1.251-3.22-2.292-5.027-3.093c0,1.825,0.339,3.279,0.197,5.224
			C298.476,298.08,300.094,297.366,301.628,296.495z"/>
	</g>
</g>
</svg>
